<svg version="1.1" id="Layer_1" xmlns="http://www.w3.org/2000/svg" xmlns:xlink="http://www.w3.org/1999/xlink" x="0px" y="0px"
	 width="100%" viewBox="0 0 500 500" enable-background="new 0 0 500 500" xml:space="preserve">
<path fill="#000000" opacity="1.000000" stroke="none" 
	d="
M218.000000,501.000000 
	C146.666687,501.000000 75.833313,500.968384 5.000225,501.096405 
	C1.575787,501.102600 0.903037,500.423798 0.905301,497.000000 
	C1.013779,333.000092 1.013772,169.000122 0.905333,5.000232 
	C0.903069,1.576900 1.575837,0.903023 4.999891,0.905288 
	C168.999771,1.013774 332.999756,1.013761 496.999664,0.905351 
	C500.422729,0.903088 501.096985,1.575500 501.094727,4.999771 
	C500.986206,168.999664 500.986237,332.999634 501.094604,496.999542 
	C501.096893,500.422363 500.425262,501.100189 497.000275,501.095764 
	C404.166962,500.975769 311.333466,501.000000 218.000000,501.000000 
z"/>
<path fill="#FCD701" opacity="1.000000" stroke="none" 
	d="
M331.165405,279.462769 
	C329.273590,280.114532 330.106506,283.144684 327.269165,282.768433 
	C326.127563,282.617004 324.671051,284.847809 326.717407,286.531342 
	C328.091766,287.661987 331.112946,286.258301 331.145203,289.433868 
	C331.174713,292.336151 329.182098,295.290405 327.560669,296.090607 
	C322.433167,298.621094 322.947083,302.288147 323.802826,306.562317 
	C324.114685,308.119904 324.540527,310.494537 322.332672,310.637268 
	C319.841980,310.798248 319.921783,308.500732 320.128571,306.586029 
	C320.378296,304.273529 320.667267,301.959259 320.763885,299.638428 
	C320.825104,298.167572 321.955536,295.704010 319.391724,295.716278 
	C316.979401,295.727814 318.138336,298.266510 317.859680,299.737183 
	C317.799225,300.056122 317.865814,300.400696 317.884521,300.732819 
	C318.875793,318.343048 317.702148,335.951599 317.835205,353.561279 
	C317.843964,354.721924 317.752319,355.889160 317.622559,357.043793 
	C317.390411,359.109253 318.033447,361.959656 315.276337,362.468445 
	C312.342743,363.009796 312.358826,359.950806 311.334595,357.794586 
	C309.899567,354.465240 311.491180,351.567932 311.528351,348.611847 
	C311.572723,345.086151 311.030029,341.649841 310.562317,337.748108 
	C310.220551,325.205933 310.635925,313.103668 310.459778,301.002594 
	C310.434845,299.288940 310.100616,297.728729 309.268127,295.778076 
	C308.177917,291.912109 308.296722,288.423676 308.837646,284.542847 
	C309.700104,281.978027 311.572144,282.036835 313.536835,281.983307 
	C312.395172,281.138062 310.975830,281.299225 309.742584,280.202271 
	C307.459015,275.994080 309.768768,271.350342 307.647949,267.249298 
	C303.464569,272.134613 303.408173,272.247101 297.748657,269.410187 
	C283.701813,262.368896 269.585358,260.521271 255.188095,268.363159 
	C253.655685,269.197845 251.615067,269.851501 251.065948,267.568848 
	C249.296341,260.212585 244.589066,254.579620 240.516083,248.165146 
	C241.072250,246.203644 242.410767,245.975327 244.207504,245.831696 
	C246.453156,246.162613 248.281601,246.821121 250.553650,245.867493 
	C255.559464,245.209030 260.167542,245.409668 265.203247,245.616669 
	C270.799194,247.119476 276.187134,247.332870 281.835815,248.482208 
	C286.810486,248.189377 291.271179,248.940109 296.138123,249.758499 
	C301.199371,250.711197 305.809601,251.825378 310.863922,252.572449 
	C313.798676,253.169235 316.373505,253.705627 319.471893,254.662872 
	C317.057648,253.679138 315.070038,253.420883 312.838257,252.718445 
	C308.713257,250.608688 304.633820,249.662415 300.030487,249.169800 
	C294.913330,247.464981 289.812317,247.779816 284.661133,246.289917 
	C282.446259,245.388901 280.452911,245.426270 278.147339,245.130646 
	C276.831970,244.913406 275.877899,244.749939 274.523621,244.836349 
	C273.621490,244.827606 273.108826,244.742645 272.232330,244.438934 
	C260.983856,242.370422 250.057495,241.117218 238.994080,241.941727 
	C237.190720,242.076111 235.403778,242.452087 233.172028,242.369766 
	C225.254486,240.151688 218.685150,235.863678 211.587311,232.736115 
	C204.915909,229.796463 198.384888,226.539536 193.423767,220.858322 
	C187.052811,213.562683 187.144180,203.906815 194.146820,196.961533 
	C196.994812,196.237106 197.899094,198.228485 199.008316,199.757614 
	C201.685898,203.448929 203.874207,207.484421 207.087585,211.227112 
	C209.037689,214.949661 211.490067,217.761215 215.024445,220.034790 
	C219.100998,221.581421 218.768799,217.820023 220.396515,215.982330 
	C223.353149,212.051315 227.017670,208.802673 225.812347,203.125656 
	C225.800095,202.556198 225.806076,202.329422 225.848938,201.767426 
	C225.928940,201.213577 225.972046,200.994949 226.102905,200.456818 
	C226.387787,199.511246 226.600845,198.889511 226.755676,197.907745 
	C226.888138,196.890274 227.041046,196.220810 227.484055,195.269836 
	C227.870529,194.823410 228.069260,194.683945 228.627029,194.465683 
	C238.096436,198.259415 241.971359,206.007477 244.214630,215.323059 
	C244.571426,218.574707 240.652634,221.108139 243.808411,224.155304 
	C245.552673,223.768860 246.877823,223.249954 247.852829,221.632629 
	C248.851395,219.899689 248.600494,218.422455 248.012527,216.598541 
	C246.896362,208.079041 248.378494,199.774445 246.832962,190.195465 
	C243.743423,196.882050 239.934631,195.414703 235.947052,193.067856 
	C233.392166,191.564224 230.300858,191.082047 227.798782,188.668701 
	C227.426971,188.118896 227.308502,187.875916 227.110626,187.230408 
	C227.054016,185.453629 226.606155,184.025345 227.770050,182.425583 
	C230.557968,178.344269 229.974350,171.780334 237.052887,172.144882 
	C237.190598,172.151978 237.395691,172.031647 237.470383,171.910019 
	C239.526672,168.561325 239.544571,164.623688 240.511520,160.968185 
	C241.392059,157.639450 243.224136,154.266541 239.176773,151.076965 
	C235.161514,147.912689 234.669464,142.281250 237.071808,138.443481 
	C239.429962,134.676392 246.147278,132.410507 250.398544,133.948166 
	C254.914047,135.581390 257.900696,142.792740 254.730103,146.463196 
	C248.373657,153.821762 250.541092,161.647278 253.122681,169.031113 
	C254.919586,174.170639 254.589432,179.454391 256.185547,184.544907 
	C257.971710,190.241470 261.464539,194.831146 264.281250,200.233948 
	C263.629791,207.707794 267.273743,212.950439 272.041077,218.053467 
	C274.675323,221.830322 276.963684,221.378326 279.393799,217.854767 
	C282.947815,215.447403 284.911285,212.254562 286.367584,208.344269 
	C283.319122,200.561707 286.338104,194.842010 291.544556,189.727539 
	C292.488159,188.800583 293.576752,187.910873 294.190887,186.782242 
	C295.389954,184.578827 296.332275,183.601456 298.422852,186.072006 
	C300.201996,188.174515 302.823059,188.207855 304.618073,186.282990 
	C310.512177,179.962646 317.360046,174.059753 315.348602,163.821289 
	C314.565460,159.834839 319.325409,155.653961 325.342896,154.528824 
	C329.270691,153.794403 332.398804,156.258865 333.768555,161.166885 
	C335.100220,165.938309 333.028687,171.220871 328.560333,172.087540 
	C323.854980,173.000153 322.716583,175.633652 322.541290,179.691422 
	C322.009003,192.011551 317.592133,203.763702 317.098450,216.521484 
	C319.809143,218.658524 319.391602,221.725601 320.219879,224.640686 
	C320.461670,226.086441 320.224182,227.426315 321.163696,228.142883 
	C321.782135,228.614578 322.049225,227.554443 322.602234,226.839600 
	C322.899292,226.363342 323.025391,226.175858 323.363190,225.721008 
	C323.883545,225.119232 324.211304,224.804779 324.822113,224.296967 
	C328.694702,221.774017 331.067535,218.086304 334.797577,215.412628 
	C335.778198,215.021790 336.491272,214.831970 337.575623,214.643906 
	C339.690002,215.674271 339.881134,217.637451 340.854309,219.491760 
	C341.630524,220.790405 342.303101,221.011017 343.221527,219.615570 
	C345.945526,214.771118 350.068573,211.970474 354.776459,209.314301 
	C359.786652,206.279083 365.440491,205.078018 369.425659,200.871750 
	C370.341492,199.905182 371.931732,199.061920 371.344086,197.728333 
	C369.222412,192.913651 373.139679,191.488617 375.905823,190.335434 
	C379.359436,188.895660 382.345551,190.561569 384.021332,194.489563 
	C386.249329,198.521698 383.871918,200.563690 381.276703,202.477448 
	C379.615814,203.702225 377.274231,204.032928 376.238037,206.583237 
	C370.060760,213.177322 364.377106,219.746155 358.851807,226.908386 
	C356.629456,229.285568 354.646606,231.412949 352.807953,234.105377 
	C348.939240,238.097198 345.689941,242.189590 341.995087,246.341141 
	C340.065460,248.414093 338.750519,250.558670 336.744263,252.567230 
	C334.152893,255.003922 331.999634,256.757690 335.341675,260.355988 
	C337.368408,262.538147 337.406464,266.189575 335.328430,269.486084 
	C334.198669,271.639526 334.257080,273.979584 332.230713,275.686523 
	C331.704376,276.387482 331.435333,276.845856 331.136414,277.568970 
	C331.394989,278.246948 331.509094,278.700195 331.165405,279.462769 
z"/>
<path fill="#F9D402" opacity="1.000000" stroke="none" 
	d="
M178.228973,294.535706 
	C172.952286,302.774963 175.080200,311.597748 174.644821,320.128601 
	C173.798721,336.707581 175.750168,353.307831 174.092010,369.866791 
	C173.885910,371.925049 174.275574,374.869476 171.336960,374.912872 
	C168.295670,374.957825 168.004425,371.870514 167.957687,369.709381 
	C167.742538,359.759094 167.699936,349.801941 167.790985,339.849030 
	C167.902954,327.608398 168.274368,315.370056 168.363281,303.129456 
	C168.377274,301.205078 167.864197,299.071350 166.948471,297.385498 
	C164.500839,292.879456 163.676239,288.748016 168.068100,284.932404 
	C169.228806,283.923981 168.701889,282.591217 167.979385,281.792206 
	C166.804108,280.492493 166.476334,282.064697 166.034393,282.731964 
	C164.768036,284.643982 165.275482,282.387543 164.885895,282.263763 
	C165.517914,280.623566 161.597702,281.790161 163.219803,279.599548 
	C164.267471,278.184692 166.106873,277.080780 164.415176,274.664612 
	C160.066040,271.958099 159.406326,267.456177 157.674225,263.618225 
	C157.070557,262.280609 157.498596,260.968903 158.815491,260.188019 
	C162.553223,257.971680 161.033279,255.731949 158.940948,253.413849 
	C157.613998,251.943665 156.181168,250.573975 154.667831,248.803665 
	C150.280258,242.781677 145.638123,237.431580 140.474548,232.075562 
	C138.386017,229.582703 137.158875,226.857605 134.671051,224.674286 
	C129.579132,219.184891 125.492455,213.234360 119.627396,208.434814 
	C117.898476,205.859268 115.277046,205.011307 113.272858,203.388290 
	C110.806900,201.391296 107.814545,199.289093 110.659676,195.065170 
	C113.701286,188.175308 118.687759,187.796646 123.628952,194.054016 
	C124.319405,194.606537 124.533249,195.028152 124.375626,195.922501 
	C123.025436,200.510254 128.051498,200.259064 129.256042,203.079544 
	C130.051147,204.941284 133.230820,205.821182 135.395218,207.048340 
	C136.763702,207.824219 137.898209,207.955170 139.334000,206.566238 
	C141.965210,204.020905 145.478775,204.579147 146.844086,207.909134 
	C148.743057,212.540741 152.210327,214.772202 156.714798,216.041504 
	C162.307861,217.617538 167.824127,219.429626 173.592834,220.387955 
	C176.622620,220.891266 177.508514,219.795181 177.468109,217.034927 
	C177.423859,214.012253 177.338028,211.018723 175.679337,208.354599 
	C173.908035,205.509628 173.655624,202.451065 174.188141,199.311981 
	C174.864838,198.735504 175.517685,198.907959 176.024933,199.318481 
	C177.019089,200.123016 177.877563,201.771027 179.311691,200.808609 
	C180.803970,199.807159 180.083389,198.030487 179.642288,196.660446 
	C177.600281,190.317947 175.848389,183.906265 175.102188,177.274948 
	C174.848251,175.018250 173.540878,174.275223 171.642578,173.673080 
	C169.021896,172.841766 166.929901,171.265732 165.879623,168.559509 
	C164.345154,164.605728 164.897781,160.997269 167.848740,157.955887 
	C170.365738,155.361771 173.428726,155.183807 176.549347,156.782623 
	C180.359543,158.734726 181.717621,162.468292 180.794556,166.060272 
	C179.721970,170.234131 181.274414,172.759262 183.446259,175.915710 
	C186.724808,180.680634 189.218826,185.985382 192.157990,191.450623 
	C192.520142,193.441971 191.344696,194.267990 190.366592,195.107910 
	C177.822296,205.880035 178.589081,224.550537 194.503571,235.404221 
	C198.884705,238.392136 203.967651,240.212006 208.196442,243.984772 
	C206.697891,247.970566 203.001343,247.064316 199.819794,248.166046 
	C198.926529,248.292923 198.415680,248.308304 197.535370,248.216095 
	C194.943802,247.810806 192.869690,248.440506 190.489029,249.287689 
	C189.046677,250.084274 187.722626,249.899918 186.535782,250.288055 
	C187.814163,249.929138 189.222092,250.123093 190.736115,249.246796 
	C192.426025,248.517014 193.890350,248.360321 195.707642,248.135544 
	C198.163055,248.924042 200.182770,249.973846 202.901459,249.522614 
	C207.169403,248.940109 211.070419,248.533218 215.371216,248.157150 
	C223.482056,247.645248 228.556259,252.906281 234.141846,256.886566 
	C236.953201,258.889954 239.411255,261.513031 240.773224,264.853363 
	C241.844070,267.479736 242.908844,270.147675 241.101303,273.287415 
	C239.497299,274.340912 238.071442,274.477478 236.171356,274.451233 
	C220.067062,274.335388 204.716827,277.304901 188.840927,279.138062 
	C183.036499,276.477875 182.416977,271.084534 180.916718,266.222565 
	C180.383270,264.493866 180.772888,262.542847 179.041977,259.880554 
	C177.831970,271.957977 178.927261,283.098877 178.228973,294.535706 
z"/>
<path fill="#FCFBF6" opacity="1.000000" stroke="none" 
	d="
M208.280609,244.568024 
	C202.603363,241.281082 196.745987,238.880020 191.780563,234.915939 
	C176.484253,222.704330 176.539520,204.420120 192.089706,192.085999 
	C202.548477,185.694351 213.537109,184.672134 225.739288,187.234406 
	C226.846283,187.197189 227.208466,187.329224 227.732376,187.780762 
	C231.944656,189.937729 236.002777,191.791183 239.954834,193.848404 
	C242.442917,195.143570 244.041962,195.271225 244.074341,191.824509 
	C244.089111,190.255432 244.349838,188.518356 246.281815,188.561493 
	C248.421585,188.609268 248.718796,190.507034 248.727982,192.217972 
	C248.769882,200.008133 248.758087,207.798599 248.869553,216.011841 
	C249.778275,218.079239 249.443634,219.819214 249.156647,221.992722 
	C247.911682,223.562973 247.683701,225.921890 244.983261,224.553055 
	C242.183014,224.984344 242.981537,222.792343 242.780273,221.797348 
	C242.465347,220.240265 243.238571,218.682480 243.389557,216.666870 
	C241.871658,206.792542 236.638123,199.930573 228.485794,194.702545 
	C225.203552,194.874588 222.763489,193.142334 220.062775,192.450623 
	C211.380798,190.226929 203.738937,193.083618 195.803375,196.744965 
	C188.201828,203.923828 188.186096,214.314117 195.451462,221.480972 
	C199.766556,225.737549 205.113892,228.409332 210.484634,231.024796 
	C217.327637,234.357254 224.170471,237.690109 231.349915,241.092621 
	C235.501556,241.992599 238.806595,243.578003 240.841537,247.574554 
	C243.368027,251.063004 246.367020,253.712692 248.390121,257.205444 
	C250.412003,260.696136 251.010056,264.632294 252.303101,268.508453 
	C268.085724,258.757019 283.644775,260.466949 299.121033,268.875305 
	C302.154968,270.523682 305.342621,272.695923 305.249603,266.418793 
	C305.233765,265.349213 306.106354,264.537262 307.211090,264.530884 
	C308.858459,264.521423 309.568329,265.783295 309.623901,267.160614 
	C309.777557,270.971649 309.746979,274.790100 309.878479,279.027283 
	C310.419800,280.141266 310.711365,280.868896 310.223816,282.036194 
	C309.920746,286.391724 309.859894,290.425659 309.891907,294.951294 
	C311.230530,297.736267 310.640686,299.667542 308.443787,301.513611 
	C304.688293,301.879913 303.902069,299.526398 303.712769,296.946198 
	C303.345917,291.945343 301.854706,287.337128 299.243103,282.663025 
	C298.204590,280.294922 296.834320,278.621979 295.073120,276.786865 
	C284.399384,266.248718 271.437134,264.780212 258.472412,272.633545 
	C255.641357,274.234619 254.411530,276.614532 253.360580,279.523132 
	C250.885376,288.350220 254.332809,294.564697 261.241028,299.742828 
	C264.980225,302.223602 268.365326,304.637573 272.696228,306.048950 
	C275.335907,307.241577 277.572449,308.468689 280.201324,309.681427 
	C283.153381,311.192474 285.779694,312.582031 288.787537,313.973907 
	C290.294891,314.761902 291.491852,315.406158 293.007935,316.175812 
	C296.235962,318.455139 299.424591,320.219330 302.275879,323.005768 
	C304.056000,324.861115 305.630402,326.445618 307.438873,328.270752 
	C309.560669,331.045654 310.937134,333.808197 311.544678,337.274780 
	C313.142761,344.021332 313.888947,350.429718 311.238708,357.119751 
	C304.563416,369.513947 293.220459,372.858124 280.235535,374.065491 
	C277.883362,375.739868 275.829742,375.621124 273.323853,374.390076 
	C264.349976,373.342072 256.547028,370.389862 249.080017,365.383636 
	C245.838211,364.277344 243.891235,364.786438 243.776276,368.339722 
	C243.750793,369.127838 243.140717,369.779266 242.199768,370.447144 
	C239.246582,371.486572 238.106583,370.351562 238.103561,367.769836 
	C238.091522,357.481598 238.105392,347.193390 238.090881,336.905151 
	C238.088577,335.276001 238.521927,333.962311 240.557083,333.246826 
	C244.108612,333.810242 244.109955,336.438416 244.359558,338.860138 
	C244.871628,343.828003 246.405838,348.410950 249.519196,352.805664 
	C254.959015,360.984039 262.220612,365.807343 271.847778,367.639893 
	C274.293945,367.823059 276.330444,368.685577 278.828430,368.084717 
	C280.491333,367.736145 281.827972,367.736145 283.154358,367.620575 
	C290.582031,366.973297 297.166718,364.486267 299.612396,356.823700 
	C302.143707,348.892853 301.279419,341.367310 294.173065,335.568481 
	C290.275940,332.388397 286.202484,329.561676 281.296814,327.327393 
	C278.354706,325.989441 276.087250,324.122375 272.942108,323.189209 
	C264.428833,318.948303 255.568481,316.005737 248.644135,309.036865 
	C245.780060,305.954437 243.153809,303.134735 242.516937,298.753906 
	C241.630295,296.566284 241.838150,294.373688 240.307068,292.520905 
	C236.790558,293.679108 233.568893,294.973969 230.069824,296.504089 
	C228.096817,298.733307 225.916260,298.981964 223.162262,298.252838 
	C219.475708,298.007141 216.154114,297.988861 212.379883,298.049072 
	C209.344910,299.920441 206.939804,299.258881 204.263702,297.325134 
	C202.769501,296.645203 201.618408,296.239075 200.100006,295.804840 
	C194.864960,296.210297 191.475098,293.051941 187.877640,290.651062 
	C185.203400,288.866333 183.344193,287.604218 182.854752,292.220581 
	C182.715500,293.533997 181.983627,294.709930 180.277466,295.170166 
	C179.526901,295.023956 179.111572,294.973083 178.382553,294.908997 
	C177.061111,293.452637 177.065903,291.812103 177.069748,290.143036 
	C177.091446,280.710571 177.073502,271.277985 177.086456,261.845459 
	C177.088959,260.031219 176.885025,257.649902 179.291397,257.563690 
	C181.705215,257.477264 181.682617,259.862213 181.754669,261.670074 
	C181.992599,267.640350 184.011993,272.964172 187.755188,277.992126 
	C189.327820,278.731567 190.399490,279.564392 191.613525,280.789581 
	C197.472015,287.119415 204.262558,290.971710 212.914642,292.027771 
	C215.849228,292.757721 218.449188,292.719269 221.401031,292.177979 
	C224.727066,291.403290 227.753326,290.887207 230.897217,289.516296 
	C232.680130,288.756805 233.963806,287.880096 235.244537,286.427307 
	C237.573212,284.286346 238.673401,281.889862 239.092346,278.770294 
	C239.593231,276.788025 239.522217,275.008759 240.799515,273.272705 
	C241.637207,269.351379 240.617798,265.950562 238.455322,263.199677 
	C232.924988,256.164429 225.753601,251.387955 216.717987,248.948441 
	C213.455399,248.081238 210.573288,247.197983 208.280609,244.568024 
z"/>
<path fill="#C9AD12" opacity="1.000000" stroke="none" 
	d="
M154.084473,247.899582 
	C158.023209,249.344788 159.946838,252.619461 162.242020,255.384720 
	C163.923538,257.410583 162.951019,260.087921 160.759277,260.667755 
	C157.272156,261.590302 158.574753,263.167572 159.460068,264.943756 
	C160.934708,267.902283 162.457870,270.836609 164.037415,274.100342 
	C154.640640,277.965698 149.643219,285.479126 146.445862,294.655426 
	C145.763214,290.610138 147.731857,287.211670 148.391891,283.566986 
	C148.650009,282.141510 149.648895,280.568573 148.147995,279.424377 
	C146.950119,278.511169 145.586746,279.343964 144.379349,279.848419 
	C139.486893,281.892456 134.636734,284.041412 129.707108,285.990051 
	C128.573990,286.437927 126.949997,287.583496 126.015419,286.384003 
	C124.764397,284.778351 126.797432,283.860962 127.587463,282.750671 
	C128.337891,281.695953 129.225494,280.738800 130.872818,278.747498 
	C121.756905,279.190308 113.456146,278.161926 107.671722,286.058258 
	C107.295319,285.417725 107.048775,285.177521 107.013725,284.909637 
	C106.770248,283.048798 110.723961,281.848114 108.192955,279.850342 
	C104.806129,277.176971 102.491333,280.676056 99.486908,282.060211 
	C98.893990,282.139679 98.644707,282.123962 98.410156,281.733826 
	C97.433342,275.554321 103.477989,274.836304 105.377029,275.311554 
	C111.618881,276.873596 112.557953,271.900970 115.387154,268.817993 
	C107.129608,275.442566 97.385658,273.387512 88.154823,274.199280 
	C86.060295,274.383453 84.075676,275.618103 81.973488,275.977417 
	C80.277054,276.267365 78.333328,281.107391 76.728195,275.894165 
	C76.108772,276.089966 75.382042,276.140533 74.887848,276.505768 
	C72.276749,278.435425 70.759552,277.747589 69.873169,274.719421 
	C69.517242,273.503448 68.480247,273.083679 67.101456,273.192474 
	C65.098694,273.350494 62.122574,273.153320 62.227585,271.070984 
	C62.357449,268.495758 65.552277,269.114685 67.499229,269.069763 
	C73.891106,268.922119 79.989204,267.929810 86.696541,263.547882 
	C77.817863,261.905548 70.137985,260.452148 62.444927,259.072235 
	C56.164642,257.945740 49.908611,256.512360 43.786957,260.084106 
	C42.330109,260.934082 40.232719,260.772339 38.417816,260.892334 
	C37.193272,260.973358 36.075344,260.525299 35.914028,259.040833 
	C35.757793,257.603119 36.015217,256.441803 37.721748,256.007812 
	C39.648743,255.517792 41.549614,254.901733 43.421967,254.229431 
	C44.440659,253.863647 46.023254,253.646713 45.677597,252.138733 
	C45.362431,250.763779 43.792576,251.199631 42.727867,250.873810 
	C41.071011,250.366730 38.074242,254.141327 37.911663,249.952820 
	C37.816742,247.507294 41.129997,248.082199 43.029205,247.951645 
	C46.166904,247.735977 49.356865,247.451416 53.172035,248.800079 
	C57.234833,248.911819 60.561485,248.888229 63.869576,248.628326 
	C66.173500,248.447311 67.823135,246.800507 67.302956,244.682861 
	C66.766655,242.499619 64.419632,243.619858 63.249508,244.192581 
	C60.506718,245.535004 58.408237,244.771271 55.826546,243.571884 
	C50.567860,241.128845 45.076168,239.163818 39.608498,237.202530 
	C36.034065,235.920334 32.460110,236.474121 28.874113,237.683411 
	C24.261951,239.238754 19.540220,239.839813 13.715007,237.637802 
	C17.926508,236.483002 21.146582,235.600052 24.495962,234.681656 
	C23.442459,233.045731 21.599009,233.999283 20.163746,233.322845 
	C21.597654,231.443237 23.742327,231.414902 25.451916,230.547897 
	C26.741802,229.893707 29.699125,230.834335 28.512775,227.531174 
	C28.191639,226.637054 28.958611,226.565536 29.706062,226.611450 
	C46.921631,227.669113 62.077843,220.592834 77.425842,214.391953 
	C84.820320,211.404449 92.100525,208.119843 98.831886,203.755051 
	C101.655914,201.923874 102.607941,200.005646 99.379372,197.640518 
	C100.290703,196.312653 101.858002,197.476654 102.842804,196.633423 
	C102.516296,194.792145 100.255714,194.759521 99.569221,193.238220 
	C103.492203,191.863495 106.428444,195.590302 110.494659,194.944763 
	C109.752892,198.696030 111.370155,201.283646 114.891548,202.972107 
	C116.925133,203.947205 119.165138,204.707138 120.013550,207.522308 
	C115.940674,209.633987 111.423767,208.908463 107.126137,210.386856 
	C89.183334,216.559204 72.200050,224.961731 54.444855,232.138611 
	C59.968124,234.630219 65.234535,234.441910 70.683952,232.866547 
	C79.006477,230.460617 87.181015,227.617050 95.410126,224.933395 
	C96.834885,224.468765 98.255600,223.969086 99.733116,223.714340 
	C101.331436,223.438782 103.165565,222.668579 104.321884,224.412125 
	C105.645592,226.408051 104.746506,228.318741 103.337013,229.858871 
	C99.741913,233.787262 96.088470,237.666763 91.905457,240.997864 
	C86.543007,245.268250 80.707909,248.785995 74.615051,251.895599 
	C73.945335,251.876907 74.611389,252.919220 74.399994,252.286957 
	C74.344276,252.120316 74.502632,251.980713 74.828239,252.060120 
	C82.555420,253.944855 88.682365,250.562653 94.693123,246.315002 
	C100.814629,241.989090 106.722618,237.384430 112.781433,232.980179 
	C114.793678,231.517456 116.733734,229.897980 119.638855,229.358261 
	C120.241913,229.417313 120.476669,229.483154 120.994553,229.777298 
	C121.960640,231.407059 121.408615,232.671890 120.611870,233.729568 
	C112.838310,244.048843 106.849663,255.701797 97.176376,264.975952 
	C96.735970,265.505157 96.110443,265.369141 96.103088,265.699585 
	C96.097588,265.946106 96.495811,265.873627 96.926544,265.273743 
	C110.236580,262.773407 118.941429,253.567566 128.232773,245.354782 
	C130.975891,242.930084 133.679062,240.483353 136.729370,238.464111 
	C138.276489,237.439972 140.118332,236.483154 141.795959,237.860077 
	C143.551834,239.301254 142.678894,241.239517 141.910492,242.899948 
	C138.625778,249.997803 134.665329,256.716675 130.377945,263.250885 
	C129.033127,265.300507 127.457802,267.231812 126.368370,269.946777 
	C129.101288,270.519226 130.796509,269.127930 132.459137,267.959656 
	C138.756790,263.534454 143.981705,257.964661 148.980728,252.172791 
	C150.386719,250.543777 151.562027,248.683411 154.084473,247.899582 
z"/>
<path fill="#C9AD12" opacity="1.000000" stroke="none" 
	d="
M335.729065,252.567108 
	C337.384552,250.297806 338.845428,248.313828 340.582672,246.149994 
	C343.791077,246.495743 345.137329,248.953598 346.861542,250.931244 
	C352.786163,257.726746 358.965637,264.250671 366.482239,269.342194 
	C367.981964,270.358063 369.436005,271.528046 371.852570,271.834717 
	C370.524353,267.997833 367.922607,265.274780 365.770935,262.359772 
	C362.374908,257.758911 359.830200,252.726303 357.443268,247.585114 
	C356.740784,246.071991 356.177521,244.490128 356.009857,242.816269 
	C355.858093,241.301437 355.818909,239.723984 357.273132,238.755020 
	C358.749207,237.771515 360.178894,238.403610 361.450958,239.281021 
	C364.605896,241.457260 367.649689,243.779694 370.606445,246.225174 
	C377.022614,251.531784 383.177307,257.163177 389.980835,261.990692 
	C392.294922,263.632660 394.679169,265.190857 397.616516,265.497192 
	C398.435608,265.582611 399.374756,265.737671 399.898071,264.953674 
	C400.465424,264.103729 399.777313,263.366730 399.311584,262.710693 
	C397.091675,259.583527 394.609955,256.658752 392.220123,253.663788 
	C387.748047,248.059387 383.463776,242.321548 379.599457,236.277359 
	C378.881531,235.154449 378.109589,234.057098 377.661011,232.789902 
	C377.205261,231.502350 376.831787,230.099747 378.084534,229.115463 
	C379.162781,228.268265 380.358795,228.936432 381.342133,229.524399 
	C383.634369,230.895035 385.717590,232.562027 387.715546,234.335754 
	C394.988434,240.792328 403.029999,246.100800 411.763306,250.364899 
	C415.569855,252.223495 419.510620,253.287842 423.955597,252.260269 
	C423.712585,250.297302 422.038269,250.043747 420.854187,249.441101 
	C411.995789,244.932404 404.299225,238.900452 397.408234,231.788773 
	C396.712433,231.070663 395.977295,230.381943 395.388672,229.574066 
	C394.216736,227.965530 392.539368,226.183929 393.954376,224.221451 
	C395.268402,222.399017 397.369629,223.587234 399.039581,224.149658 
	C410.098236,227.873993 421.137054,231.706238 432.770294,233.226486 
	C438.313629,233.950882 443.932526,234.398254 449.426392,231.700150 
	C443.240662,228.860611 436.836975,226.737793 430.511627,224.456863 
	C417.337311,219.706192 404.185120,214.900101 391.806702,208.291412 
	C387.710571,206.104553 383.807495,205.177597 379.457214,207.198074 
	C378.247040,207.760147 376.930847,208.084076 375.302307,207.336823 
	C374.593384,203.866226 376.870605,202.916290 379.271454,202.094955 
	C382.362732,201.037460 384.203064,199.069809 384.091339,195.231506 
	C391.040161,194.186020 396.377014,188.933487 403.544891,189.234497 
	C403.915161,192.397583 398.017609,190.884888 398.214508,194.697021 
	C398.416901,195.102539 398.256683,195.199524 397.819611,195.325165 
	C397.180206,195.358154 396.817810,195.367844 396.196106,195.432922 
	C395.767731,195.528915 395.598846,195.575302 395.182526,195.707413 
	C394.612823,195.917984 394.292542,196.047760 393.747101,196.297485 
	C393.519867,196.412323 393.076782,196.643768 392.862579,196.761322 
	C392.648376,196.878876 392.228760,197.104462 392.091370,197.539383 
	C397.447845,202.890656 404.051971,206.035477 410.798889,208.509720 
	C426.633911,214.316757 442.097321,221.216049 458.524536,225.340408 
	C463.499359,226.589417 468.731110,226.445084 473.651245,228.108536 
	C474.811859,228.500931 475.903931,228.633194 476.092743,230.461411 
	C476.320831,231.298355 476.263458,231.704147 475.575256,232.180145 
	C466.246063,233.998367 457.759064,237.445816 449.032318,240.071991 
	C443.106537,241.855240 437.115692,242.822449 430.512024,243.019775 
	C429.547607,243.456573 429.225800,243.889618 429.830505,244.729309 
	C435.446411,248.545334 438.250122,249.356567 449.195557,250.228714 
	C451.197205,250.388214 451.387329,254.198715 454.529663,252.425964 
	C455.399780,252.421249 455.778900,252.699020 455.936707,253.494141 
	C446.916443,256.928284 438.021667,260.043732 428.551666,261.128082 
	C426.456940,261.367981 423.725372,261.171661 423.235107,264.517242 
	C423.608459,263.951111 423.423920,263.150421 422.237061,263.690613 
	C420.546417,264.460083 420.845764,265.740417 421.614777,266.998718 
	C424.411438,271.574860 427.849548,275.628296 431.902405,279.595093 
	C432.184692,280.092926 432.305725,280.301849 432.293213,280.848022 
	C430.806366,282.213715 429.456146,281.900208 427.790741,281.035034 
	C427.283234,280.770355 427.091919,280.646393 426.670990,280.279968 
	C426.090363,279.573181 425.884125,278.986450 425.073242,278.780884 
	C424.684784,278.941620 424.538483,279.027802 424.159485,279.217529 
	C415.705231,274.600800 406.526215,276.043793 397.366943,274.802246 
	C397.828827,279.121460 401.161072,281.702515 402.401031,286.179016 
	C399.109680,283.968811 396.718781,282.051300 394.056519,280.648773 
	C390.078796,278.553223 386.558472,280.581696 386.179688,285.313843 
	C386.512482,286.234375 386.406006,286.676300 385.519714,286.985229 
	C381.643280,280.398895 379.180817,279.254730 370.613892,280.506134 
	C374.125366,284.020752 372.263824,287.049500 369.643921,289.545288 
	C368.731506,290.414429 368.097534,288.293671 367.128479,287.317749 
	C366.769836,286.721527 366.673676,286.414734 366.817963,285.823059 
	C366.978027,285.282898 367.032349,284.972595 366.981323,284.431824 
	C366.916626,284.208374 366.716583,283.780304 366.596649,283.571411 
	C366.476715,283.362488 366.239960,282.933685 366.145996,282.456055 
	C362.600555,278.781342 358.264099,279.049042 353.757721,278.715302 
	C354.156677,281.957153 357.926208,281.796783 359.023407,285.130981 
	C354.157349,283.741821 349.365204,286.678314 345.026489,281.842285 
	C342.063690,278.539825 337.360077,276.826508 332.356049,275.917725 
	C332.598785,273.766266 333.224182,271.603394 334.031036,269.104492 
	C337.037170,269.175720 338.365936,268.650818 337.541565,265.195038 
	C336.578644,261.158630 334.324158,257.259583 335.729065,252.567108 
z"/>
<path fill="#F5D001" opacity="1.000000" stroke="none" 
	d="
M180.019485,295.427429 
	C181.398697,293.949646 181.591064,292.329865 181.811340,290.649780 
	C182.523865,285.214874 182.571442,285.203369 187.140045,288.587982 
	C190.890106,291.366180 194.952728,293.564270 199.505188,295.535797 
	C199.469421,298.418671 198.842926,301.082794 199.003113,303.698761 
	C199.898880,318.327026 198.658173,332.955688 199.095383,347.567200 
	C199.573334,363.541138 200.464828,379.497223 199.022354,395.461548 
	C198.917816,396.618683 198.983810,397.807312 198.741104,398.931763 
	C198.446320,400.297668 197.594009,401.445801 196.146454,401.641327 
	C194.608185,401.849121 193.738724,400.685791 193.124191,399.466980 
	C191.642059,396.527405 191.561478,393.349274 191.898621,390.186462 
	C193.278778,377.238861 192.107040,364.327850 191.466919,351.407410 
	C191.425735,350.576355 191.356522,349.728699 191.465714,348.910858 
	C193.320099,335.020142 192.455109,321.109955 191.828918,307.198364 
	C191.680466,303.900024 192.332260,300.586182 191.050690,297.326843 
	C189.980637,294.605438 189.322403,292.428436 186.324005,295.957428 
	C184.536606,298.061127 182.050293,299.728088 180.019485,295.427429 
z"/>
<path fill="#F4CF00" opacity="1.000000" stroke="none" 
	d="
M203.944244,297.455078 
	C206.325607,297.350647 208.730591,297.649902 211.531433,298.038391 
	C211.553299,323.708282 212.767670,349.289978 211.878265,374.870331 
	C211.872482,375.036530 211.881790,375.203888 211.866226,375.368988 
	C211.610565,378.081055 212.251358,382.036133 208.292999,381.757568 
	C204.750214,381.508209 205.268600,377.680206 205.190948,374.928680 
	C204.758286,359.598785 205.483841,344.274109 204.811218,328.914612 
	C204.461929,320.938385 205.299637,312.801117 204.794586,304.698608 
	C204.649658,302.373810 204.472168,300.113708 203.944244,297.455078 
z"/>
<path fill="#F5D001" opacity="1.000000" stroke="none" 
	d="
M272.974365,374.585846 
	C274.946136,374.094421 276.951416,374.059204 279.377563,374.089539 
	C280.138794,392.553223 281.718689,410.947083 280.002472,429.352142 
	C279.784088,431.694122 279.621613,434.589172 276.763702,434.799805 
	C273.565552,435.035522 273.404572,431.636688 273.293579,429.662811 
	C272.960327,423.736328 272.885712,417.747650 273.363800,411.836090 
	C273.889465,405.336456 274.328705,398.931763 273.096954,392.454681 
	C272.000793,386.690674 274.075562,380.846497 272.974365,374.585846 
z"/>
<path fill="#C6AB12" opacity="1.000000" stroke="none" 
	d="
M286.246735,208.361176 
	C287.767883,212.974152 284.158081,215.294785 280.816162,217.986359 
	C276.427856,213.530334 276.427856,213.530334 272.305939,218.914001 
	C265.443298,214.479187 262.076019,207.051117 264.147400,200.974060 
	C265.854614,201.846405 266.217804,200.175659 266.936066,199.498413 
	C267.823883,198.661285 268.560791,197.653534 269.407593,199.587143 
	C270.458191,201.986038 271.001129,200.054794 271.456604,199.214050 
	C272.565216,197.167633 273.476624,194.976730 275.380249,193.514389 
	C276.246857,192.848633 277.308075,191.812592 278.447998,192.723572 
	C279.465149,193.536469 278.551758,194.516190 278.128876,195.379852 
	C277.427002,196.813354 276.414429,198.206818 277.307343,199.876251 
	C279.274506,200.214874 278.907043,197.732941 280.396179,197.662079 
	C282.796936,201.086746 281.059631,206.666534 286.246735,208.361176 
z"/>
<path fill="#E8C603" opacity="1.000000" stroke="none" 
	d="
M249.009247,353.485474 
	C244.989624,349.213135 243.198578,344.003143 242.819199,338.268646 
	C242.710754,336.629547 242.825668,334.927917 241.160110,333.416016 
	C243.468170,321.791718 242.198502,310.399597 241.342346,298.548126 
	C241.534836,297.942688 241.740372,297.802063 242.306946,297.757446 
	C244.108673,301.264709 246.000305,304.382263 248.766647,307.299744 
	C251.571411,311.306427 251.919022,315.418274 251.282608,319.843292 
	C249.938492,329.189087 251.129822,338.624695 250.509430,348.004395 
	C250.390121,349.808044 250.610092,351.656677 249.009247,353.485474 
z"/>
<path fill="#F4CF00" opacity="1.000000" stroke="none" 
	d="
M222.845581,298.491516 
	C224.863876,297.601440 226.930450,297.177429 229.394714,296.746368 
	C230.319061,306.175629 229.944458,315.608429 229.754257,325.044128 
	C229.726654,326.413452 229.590637,327.652100 229.044022,328.888000 
	C228.472473,330.180389 227.772705,331.259766 226.137924,331.103668 
	C224.744492,330.970612 224.300293,329.942749 223.895096,328.779602 
	C222.943008,326.046661 222.967377,323.233002 222.968765,320.399689 
	C222.972275,313.252319 222.922348,306.104980 222.845581,298.491516 
z"/>
<path fill="#C9AD12" opacity="1.000000" stroke="none" 
	d="
M334.655090,215.171234 
	C332.881775,219.420746 329.466858,222.435501 325.226837,225.017380 
	C324.727173,225.214462 324.580566,225.386719 324.210236,225.814056 
	C323.986511,226.069122 323.993805,225.999725 324.028534,226.003113 
	C322.795746,227.039719 321.417419,227.381226 319.499268,226.425201 
	C318.460052,223.353745 317.793365,220.534958 317.084778,217.328003 
	C322.955383,218.033310 328.522186,215.839630 334.655090,215.171234 
z"/>
<path fill="#CAAF12" opacity="1.000000" stroke="none" 
	d="
M354.659058,209.080383 
	C352.373169,213.426102 346.700165,214.759415 344.284729,219.803467 
	C343.100250,220.826508 342.253571,221.811722 340.463623,221.300629 
	C339.429169,219.232819 338.731323,217.324783 337.990204,215.031204 
	C343.391052,212.786392 348.835205,210.927124 354.659058,209.080383 
z"/>
<path fill="#F2CE03" opacity="1.000000" stroke="none" 
	d="
M241.996170,370.962006 
	C242.177917,369.307526 242.580933,368.048096 242.762161,366.757538 
	C243.548737,361.156189 243.525208,361.152893 248.552185,364.983582 
	C248.680969,366.821320 248.691177,368.450653 248.554306,370.067566 
	C248.379990,372.127014 248.618774,374.617950 245.800812,375.068207 
	C243.104050,375.499054 242.891174,373.045898 241.996170,370.962006 
z"/>
<path fill="#BDA411" opacity="1.000000" stroke="none" 
	d="
M475.209930,232.735275 
	C475.470032,231.941147 475.694702,231.589401 475.998322,231.043823 
	C479.471710,231.279175 482.697418,232.775879 486.191498,232.519638 
	C487.426941,232.429031 488.787292,232.376709 489.040863,233.730576 
	C489.243347,234.811783 487.920074,235.361694 486.991150,235.570648 
	C485.555359,235.893600 483.659882,236.559601 482.657379,235.943771 
	C480.291199,234.490280 477.469177,234.585983 475.209930,232.735275 
z"/>
<path fill="#E8C603" opacity="1.000000" stroke="none" 
	d="
M311.754791,379.245422 
	C311.688141,377.401428 311.216187,375.566589 313.515289,375.575928 
	C314.979919,375.581848 315.121277,376.983368 315.197083,378.178864 
	C315.218018,378.508942 315.312744,378.840973 315.289520,379.166138 
	C315.143860,381.205841 317.165649,384.563904 313.745300,384.781342 
	C310.650787,384.978027 312.232361,381.494751 311.754791,379.245422 
z"/>
<path fill="#E8C603" opacity="1.000000" stroke="none" 
	d="
M202.108932,413.700775 
	C202.420654,412.286804 202.978546,410.462280 203.876038,412.586273 
	C204.942871,415.111115 205.177795,418.024902 205.516312,420.801483 
	C205.649445,421.893463 205.161346,423.265930 203.674728,423.297760 
	C201.800797,423.337860 201.730698,421.934814 201.808044,420.514832 
	C201.924820,418.370758 202.007843,416.224792 202.108932,413.700775 
z"/>
<path fill="#E8C603" opacity="1.000000" stroke="none" 
	d="
M341.473389,172.156403 
	C344.253693,174.084885 344.228271,179.258972 341.675598,180.601776 
	C339.788055,181.594681 338.908264,180.469360 338.808167,178.641586 
	C338.675323,176.216827 339.426117,174.073746 341.473389,172.156403 
z"/>
<path fill="#BDA411" opacity="1.000000" stroke="none" 
	d="
M426.247498,267.359314 
	C430.721893,270.196014 434.529510,273.326080 438.104523,277.871002 
	C432.848755,275.583099 428.896240,272.908966 426.007874,268.400757 
	C425.901337,267.829315 425.888855,267.581635 426.247498,267.359314 
z"/>
<path fill="#DBBA00" opacity="1.000000" stroke="none" 
	d="
M240.466156,382.739624 
	C240.947037,383.214783 241.152313,383.477600 241.288696,383.772278 
	C242.209381,385.761597 242.386017,387.700562 240.107941,388.814270 
	C238.854553,389.426971 237.724548,388.537292 237.505127,387.308167 
	C237.115173,385.123718 236.478378,382.559540 240.466156,382.739624 
z"/>
<path fill="#A48E0F" opacity="1.000000" stroke="none" 
	d="
M373.898499,290.700195 
	C375.477631,292.268524 377.192078,293.712952 375.709503,295.810150 
	C375.227753,296.491608 373.154022,296.189880 373.080811,295.549805 
	C372.895538,293.930115 373.393036,292.232300 373.898499,290.700195 
z"/>
<path fill="#A48E0F" opacity="1.000000" stroke="none" 
	d="
M397.776276,194.800995 
	C398.144531,195.028641 398.355774,194.894897 398.466431,194.950226 
	C397.989471,198.633682 394.984924,197.603287 392.346375,198.004456 
	C391.953979,197.974304 392.017426,197.996643 392.010193,198.029495 
	C391.484253,197.302979 391.963837,196.837326 392.747192,196.159698 
	C392.998535,195.932297 392.999237,195.998260 392.966736,195.992676 
	C393.414581,195.593552 394.023743,195.526276 394.808044,195.138107 
	C395.031860,194.940536 395.010498,195.018188 394.971008,195.010284 
	C395.669037,194.351440 396.552582,194.543488 397.776276,194.800995 
z"/>
<path fill="#BDA411" opacity="1.000000" stroke="none" 
	d="
M227.776825,182.375702 
	C228.077271,183.449173 228.113388,184.798050 228.080536,186.547668 
	C227.654022,187.376053 227.201080,187.539810 226.296799,187.294189 
	C225.940872,187.148682 225.967896,187.255112 225.921387,187.283630 
	C227.255081,185.155167 223.555878,184.015045 225.625229,181.246628 
	C226.024261,180.974014 226.318344,183.417725 227.776825,182.375702 
z"/>
<path fill="#A48E0F" opacity="1.000000" stroke="none" 
	d="
M408.762512,185.826736 
	C407.567932,186.080856 406.792480,187.015900 405.677246,186.387390 
	C406.110931,184.499283 407.763275,184.244904 409.205292,183.781738 
	C409.747040,183.607742 410.685425,183.397842 410.432220,184.462219 
	C410.315979,184.950974 409.528992,185.280167 408.762512,185.826736 
z"/>
<path fill="#BDA411" opacity="1.000000" stroke="none" 
	d="
M432.807007,282.620636 
	C432.503204,283.969666 433.826324,285.439453 432.383423,286.021667 
	C431.181519,286.506683 430.367645,285.186066 429.205872,284.302002 
	C428.674622,283.611938 428.510834,283.173645 428.633118,282.315735 
	C429.331543,281.421783 430.075287,281.528168 431.156158,281.527405 
	C432.012177,281.625580 432.412659,281.861511 432.807007,282.620636 
z"/>
<path fill="#A48E0F" opacity="1.000000" stroke="none" 
	d="
M392.124573,288.665222 
	C389.772125,287.694122 388.825562,285.581085 388.267517,283.204010 
	C390.315063,284.384644 391.544830,286.161469 392.124573,288.665222 
z"/>
<path fill="#A48E0F" opacity="1.000000" stroke="none" 
	d="
M433.257874,283.033722 
	C432.618286,282.947968 432.385071,282.821381 432.123840,282.403992 
	C431.844543,282.022461 431.650391,281.826477 431.727600,281.318115 
	C432.001282,280.818268 432.003601,280.630829 432.034790,280.163727 
	C433.909607,280.800140 435.640656,281.851593 436.756531,283.721100 
	C435.377625,284.677704 434.634460,283.244324 433.257874,283.033722 
z"/>
<path fill="#A48E0F" opacity="1.000000" stroke="none" 
	d="
M365.919373,191.898224 
	C367.381500,191.231598 368.506439,191.158966 368.923553,192.602280 
	C369.014465,192.916824 368.274719,193.782104 367.802734,193.889557 
	C366.464264,194.194336 365.128662,194.164291 365.919373,191.898224 
z"/>
<path fill="#A48E0F" opacity="1.000000" stroke="none" 
	d="
M368.183289,285.583252 
	C367.851318,286.113007 367.564575,286.320190 367.142273,286.758667 
	C366.117432,285.570679 363.609985,284.678833 365.774109,282.166748 
	C366.052002,281.978424 365.992645,281.996704 365.993958,281.965576 
	C366.191711,282.205994 366.414703,282.453369 366.866272,282.826660 
	C367.063995,282.980804 367.003265,282.999542 367.023224,282.974792 
	C367.505951,283.685577 367.930817,284.440521 368.183289,285.583252 
z"/>
<path fill="#CFB314" opacity="1.000000" stroke="none" 
	d="
M242.650558,297.524109 
	C242.447495,297.906830 242.227005,297.960236 241.667908,298.048462 
	C241.013535,296.403839 240.697784,294.724426 240.197128,292.714600 
	C243.910339,292.339935 240.947540,296.033661 242.650558,297.524109 
z"/>
<path fill="#A48E0F" opacity="1.000000" stroke="none" 
	d="
M281.361542,178.468506 
	C280.123383,178.811249 279.214294,178.390106 279.464539,177.475037 
	C279.693634,176.637222 280.676514,175.621964 281.763519,176.234253 
	C282.612305,176.712372 282.258514,177.654861 281.361542,178.468506 
z"/>
<path fill="#A48E0F" opacity="1.000000" stroke="none" 
	d="
M53.864944,248.699738 
	C53.916103,249.036301 53.505184,249.090469 53.419746,249.027191 
	C53.580975,247.244156 51.322304,246.978134 51.102798,244.219635 
	C52.899490,245.737244 55.417694,245.273331 53.864944,248.699738 
z"/>
<path fill="#BDA411" opacity="1.000000" stroke="none" 
	d="
M455.167511,247.470917 
	C455.973358,246.649368 456.724152,246.154999 457.483002,246.890305 
	C458.125854,247.513229 457.645721,248.083588 457.081055,248.452148 
	C456.171021,249.046127 455.260162,249.423157 455.167511,247.470917 
z"/>
<path fill="#A48E0F" opacity="1.000000" stroke="none" 
	d="
M385.150452,287.293762 
	C385.402863,286.694305 385.673981,286.441406 386.086884,285.943237 
	C387.245422,287.177124 388.013947,288.732727 387.834290,290.714935 
	C385.948547,290.429962 385.930634,288.712982 385.150452,287.293762 
z"/>
<path fill="#A48E0F" opacity="1.000000" stroke="none" 
	d="
M132.903000,193.854538 
	C133.935394,193.418732 134.704819,193.034790 135.429596,193.640488 
	C135.795868,193.946594 136.016922,194.569962 135.420853,194.764999 
	C134.379059,195.105896 133.256332,196.318085 132.199875,194.771896 
	C132.143951,194.690033 132.221451,194.480545 132.289490,194.360214 
	C132.365494,194.225800 132.501617,194.125381 132.903000,193.854538 
z"/>
<path fill="#A48E0F" opacity="1.000000" stroke="none" 
	d="
M124.569504,196.217804 
	C124.140923,195.840179 124.039734,195.405838 123.903000,194.638611 
	C125.089081,194.066666 126.310699,193.827606 127.696243,193.556458 
	C127.371750,195.461304 125.905952,195.541702 124.569504,196.217804 
z"/>
<path fill="#BDA411" opacity="1.000000" stroke="none" 
	d="
M460.241272,248.972107 
	C459.891205,248.005966 459.490234,247.068634 460.718994,247.012421 
	C461.629425,246.970734 462.073273,247.731537 462.030579,248.575348 
	C461.969788,249.777328 461.242493,249.648529 460.241272,248.972107 
z"/>
<path fill="#A48E0F" opacity="1.000000" stroke="none" 
	d="
M96.860016,283.719604 
	C96.249359,285.143585 95.215454,285.875824 93.432358,286.134766 
	C93.316994,284.529755 94.578911,284.029358 95.741875,283.206909 
	C96.268456,283.223633 96.477211,283.322021 96.860016,283.719604 
z"/>
<path fill="#A48E0F" opacity="1.000000" stroke="none" 
	d="
M49.705727,283.605835 
	C50.767941,283.005646 51.582794,282.739838 52.116066,283.554626 
	C52.206806,283.693298 51.460949,284.650726 50.954296,284.844299 
	C50.230179,285.120880 48.931190,285.709412 49.705727,283.605835 
z"/>
<path fill="#605205" opacity="1.000000" stroke="none" 
	d="
M429.991760,244.611832 
	C429.182068,244.820145 428.299469,244.726852 427.416901,244.633575 
	C427.598511,243.523834 428.468079,243.249557 429.720245,243.053726 
	C430.016449,243.494385 429.967682,243.902298 429.991760,244.611832 
z"/>
<path fill="#BDA411" opacity="1.000000" stroke="none" 
	d="
M467.348053,250.981537 
	C467.851501,249.079117 469.157684,250.171310 470.381104,250.394669 
	C469.623535,251.355392 468.604340,250.926483 467.348053,250.981537 
z"/>
<path fill="#C9AD12" opacity="1.000000" stroke="none" 
	d="
M97.308182,283.920837 
	C96.749588,283.903839 96.499649,283.737091 96.171982,283.321899 
	C96.680412,282.638062 97.301125,282.150848 98.173370,281.511536 
	C98.547424,281.489594 98.669937,281.619720 98.967865,281.952576 
	C98.622948,282.711182 98.102623,283.266998 97.308182,283.920837 
z"/>
<path fill="#605205" opacity="1.000000" stroke="none" 
	d="
M456.141174,253.812164 
	C455.657379,253.489029 455.480042,253.129318 455.102112,252.537811 
	C455.808502,251.811630 456.734924,251.586151 457.516388,252.441589 
	C457.575775,252.506561 456.822906,253.313538 456.141174,253.812164 
z"/>
<path fill="#C3A812" opacity="1.000000" stroke="none" 
	d="
M331.241943,279.947205 
	C330.936829,279.303375 330.962921,278.881226 331.047791,278.146423 
	C331.859131,277.950989 332.853607,277.837494 333.035461,278.791809 
	C333.221588,279.768646 332.440826,280.105408 331.241943,279.947205 
z"/>
<path fill="#A48E0F" opacity="1.000000" stroke="none" 
	d="
M423.992310,279.529266 
	C423.962799,279.069885 423.998840,278.818665 424.082977,278.189758 
	C425.319336,277.667999 425.916382,278.338013 426.192261,279.718689 
	C425.907318,280.191925 425.689362,280.304291 425.156952,280.225922 
	C424.524078,280.085754 424.262512,279.986481 423.992310,279.529266 
z"/>
<path fill="#A48E0F" opacity="1.000000" stroke="none" 
	d="
M425.295715,267.189331 
	C424.761047,266.830200 424.466370,266.673004 424.053101,266.299225 
	C424.524750,266.198608 425.115021,266.314606 425.863434,266.712524 
	C425.859589,267.126740 425.697662,267.259003 425.295715,267.189331 
z"/>
<path fill="#C9AD12" opacity="1.000000" stroke="none" 
	d="
M424.969025,280.259064 
	C425.036438,280.038147 425.230408,280.041138 425.714508,280.020905 
	C426.179596,279.822906 426.354584,279.648102 426.773071,279.753235 
	C427.016571,280.033173 426.993042,280.002991 426.978485,279.990601 
	C427.109467,280.156769 427.254974,280.335358 427.285156,280.840637 
	C426.953278,281.249237 426.736725,281.331146 426.228912,281.223999 
	C425.656952,280.850922 425.376251,280.666962 424.969025,280.259064 
z"/>
<path fill="#A48E0F" opacity="1.000000" stroke="none" 
	d="
M426.022247,281.315002 
	C426.121582,281.018799 426.305542,281.002716 426.766479,280.989868 
	C427.512360,280.759430 427.908997,280.864044 428.314972,281.600861 
	C428.299622,282.176758 428.214783,282.401855 427.774597,282.689514 
	C426.981781,282.366394 426.544342,281.980743 426.022247,281.315002 
z"/>
<path fill="#A48E0F" opacity="1.000000" stroke="none" 
	d="
M428.886230,281.891052 
	C429.018188,282.544556 429.014740,282.958130 429.007446,283.681915 
	C428.588501,283.703827 428.173401,283.415558 427.588745,282.939667 
	C427.542725,282.579773 427.666199,282.407532 428.000061,281.996948 
	C428.390533,281.722809 428.570648,281.686981 428.886230,281.891052 
z"/>
<path fill="#BDA411" opacity="1.000000" stroke="none" 
	d="
M425.085388,267.240723 
	C425.055695,266.987396 425.538330,267.026642 425.779938,267.010559 
	C426.021545,266.994446 426.377380,267.105194 426.498016,267.244965 
	C426.618652,267.384735 426.286865,267.751892 426.100342,267.914459 
	C425.647552,267.882690 425.381317,267.688354 425.085388,267.240723 
z"/>
<path fill="#A48E0F" opacity="1.000000" stroke="none" 
	d="
M391.973206,289.032349 
	C392.204407,289.104248 392.652954,289.141846 392.659607,289.218079 
	C392.703857,289.723419 392.488251,289.796875 392.075317,289.205994 
	C392.012238,288.984467 391.986145,289.015930 391.973206,289.032349 
z"/>
<path fill="#A48E0F" opacity="1.000000" stroke="none" 
	d="
M423.521454,265.110504 
	C423.560333,264.894440 423.529602,264.949890 423.505219,264.928619 
	C423.601990,265.085297 423.723114,265.263275 423.889343,265.761932 
	C423.934448,266.082642 423.960480,266.046875 423.977417,266.036987 
	C423.745300,265.850891 423.574707,265.617371 423.521454,265.110504 
z"/>
<path fill="#050400" opacity="1.000000" stroke="none" 
	d="
M374.808899,207.347382 
	C382.956757,202.934402 389.730469,205.694992 397.166870,209.465652 
	C412.284882,217.131348 428.415009,222.506653 444.470551,227.945648 
	C447.365906,228.926498 450.502625,229.531082 453.346527,232.171600 
	C446.074188,235.963318 438.874207,235.487946 431.672028,234.554596 
	C420.717560,233.134995 410.468109,229.101318 400.031677,225.774277 
	C398.301514,225.222717 396.579376,224.646011 394.429077,223.941956 
	C394.255035,226.983490 395.882385,228.738495 397.592896,230.417664 
	C405.356903,238.039352 413.918304,244.565170 423.661316,249.500183 
	C425.174561,250.266663 427.838806,250.780624 427.175964,252.975952 
	C426.598267,254.889343 424.016571,254.413879 422.273895,254.383713 
	C413.688599,254.235107 406.800507,249.647964 399.969330,245.267761 
	C395.226807,242.226807 390.916870,238.504135 386.462585,235.023407 
	C383.857513,232.987686 381.522064,230.586670 378.165558,229.050766 
	C377.409088,231.415298 379.003052,232.874680 379.923828,234.390274 
	C385.904663,244.234879 393.451752,252.920044 400.474152,261.996063 
	C401.511902,263.337280 403.745544,264.895355 402.409760,266.592743 
	C401.460815,267.798523 399.027161,267.529999 397.168152,267.215179 
	C393.209106,266.544708 390.207733,264.113525 387.233368,261.733032 
	C378.529205,254.766891 369.922333,247.679153 361.227814,240.700745 
	C360.277283,239.937820 359.242523,238.394470 357.835358,239.317703 
	C356.530060,240.174088 357.255920,241.784180 357.483337,243.029053 
	C358.747925,249.950516 362.800842,255.500839 366.621124,261.134155 
	C369.381989,265.205231 372.341614,269.141510 375.501678,273.540344 
	C370.098053,274.480072 366.930176,271.534546 363.694794,269.134766 
	C355.076630,262.742462 348.290375,254.475906 340.995972,246.284088 
	C344.191742,241.919708 347.313751,237.678574 351.690979,234.137512 
	C352.839661,233.135773 353.874939,232.559021 355.030060,232.387848 
	C366.062775,230.752930 374.218170,223.158905 383.811310,218.535767 
	C377.963562,220.562927 372.370758,223.202042 366.639587,225.497406 
	C363.782166,226.641861 360.971161,228.398834 357.361084,227.270508 
	C362.973267,220.596039 367.294922,212.757248 374.808899,207.347382 
z"/>
<path fill="#060503" opacity="1.000000" stroke="none" 
	d="
M195.648026,197.023743 
	C203.670395,189.297379 216.466019,188.231079 227.924805,194.336304 
	C228.154526,194.583710 227.940933,194.711288 227.927948,194.834991 
	C226.841812,197.188354 225.457550,198.760101 222.583282,198.519104 
	C222.023026,198.472137 222.269196,194.857544 220.984406,198.166336 
	C218.495880,204.575134 214.208984,209.451202 207.349747,212.114380 
	C202.957809,210.568695 202.220337,206.291290 199.829361,203.389481 
	C198.293762,201.525803 197.171448,199.321594 195.648026,197.023743 
z"/>
<path fill="#CAAF12" opacity="1.000000" stroke="none" 
	d="
M206.980347,212.461029 
	C212.357712,207.943710 217.741928,203.807007 220.607346,197.343918 
	C221.409454,195.534698 221.192291,196.546600 222.227478,197.424011 
	C224.436707,199.296539 225.566467,196.065399 227.597168,195.097153 
	C227.919403,195.763062 227.923874,196.567429 227.882248,197.772354 
	C227.453735,198.656052 227.493912,199.289886 227.138336,200.096390 
	C227.028488,200.371017 227.089050,200.654327 227.063965,200.796982 
	C226.897568,201.081406 226.756271,201.223190 226.751953,201.632141 
	C228.356689,207.758820 225.847504,212.145096 221.352753,215.970184 
	C217.391388,215.727448 217.758133,219.551544 215.514786,221.023682 
	C211.142426,219.593292 208.473160,216.787506 206.980347,212.461029 
z"/>
<path fill="#CFB314" opacity="1.000000" stroke="none" 
	d="
M241.262955,247.654510 
	C238.024521,245.833755 235.067780,243.769333 231.898743,241.433685 
	C244.293198,238.710052 256.796722,240.799850 269.323761,241.990936 
	C270.700806,242.121857 271.977417,242.272522 272.917358,243.945450 
	C271.733032,247.120270 269.003906,246.246780 266.460449,246.844254 
	C260.997131,246.960800 255.876190,246.973969 250.275925,246.959122 
	C248.485596,246.743591 247.201538,246.257843 245.545502,246.719696 
	C244.012207,247.047211 242.778427,247.229034 241.262955,247.654510 
z"/>
<path fill="#C3A812" opacity="1.000000" stroke="none" 
	d="
M356.825256,227.126923 
	C362.838257,226.527252 367.631622,223.369339 372.849121,221.399841 
	C377.731842,219.556702 382.353729,216.964752 387.801819,216.557678 
	C376.884430,223.901642 366.551880,232.347855 352.376740,234.001022 
	C352.474976,231.014175 355.497772,229.783600 356.825256,227.126923 
z"/>
<path fill="#221D03" opacity="1.000000" stroke="none" 
	d="
M311.604248,337.156128 
	C310.082428,334.994720 308.547852,332.389984 306.923645,329.451996 
	C307.663239,319.952362 307.014526,310.742950 307.984009,301.329773 
	C309.493378,299.615875 309.502930,297.795319 309.913605,295.758606 
	C312.194611,296.638550 311.551788,298.779724 311.624359,300.622284 
	C312.098236,312.651917 312.178680,324.683197 311.604248,337.156128 
z"/>
<path fill="#120F01" opacity="1.000000" stroke="none" 
	d="
M266.461792,247.120682 
	C267.734772,244.780411 270.268005,245.227402 272.757385,244.525726 
	C273.486755,244.278900 273.925934,244.227966 274.666565,244.029953 
	C275.386902,243.632172 275.840149,243.519028 276.673462,243.638809 
	C279.194611,243.937027 281.369995,244.139725 283.792297,244.661804 
	C284.801605,246.999863 283.731110,248.319977 281.954651,249.611694 
	C276.664429,248.914200 271.619751,248.807739 266.461792,247.120682 
z"/>
<path fill="#171301" opacity="1.000000" stroke="none" 
	d="
M335.611267,252.361206 
	C337.223541,258.514252 338.523346,264.746704 339.832062,271.021881 
	C337.619843,271.448029 336.158325,270.446869 334.491760,269.006134 
	C336.470459,264.774414 335.825073,261.842224 332.021881,259.491089 
	C330.741089,258.699280 331.333954,257.899445 331.692322,257.038879 
	C332.467834,255.176605 333.814880,253.752640 335.611267,252.361206 
z"/>
<path fill="#C6AB12" opacity="1.000000" stroke="none" 
	d="
M282.071045,249.780426 
	C282.298645,248.331177 283.001923,246.946930 283.872192,245.271927 
	C289.144287,246.158447 294.553864,245.667694 299.847992,247.975861 
	C300.281219,249.901993 299.196320,250.614487 297.346069,250.976379 
	C292.181458,250.616348 287.364136,250.230881 282.071045,249.780426 
z"/>
<path fill="#120F01" opacity="1.000000" stroke="none" 
	d="
M272.051819,219.355896 
	C272.330963,218.296448 272.674896,217.569702 273.031555,216.849258 
	C274.073853,214.743851 274.309570,211.265060 277.252808,211.615982 
	C279.673157,211.904526 279.615906,215.158310 280.336395,217.691650 
	C276.459900,223.893326 275.923706,223.998428 272.051819,219.355896 
z"/>
<path fill="#171301" opacity="1.000000" stroke="none" 
	d="
M297.289032,251.257812 
	C297.960144,250.228241 298.921448,249.454651 300.047119,248.416046 
	C304.658691,248.283188 308.868500,249.376511 313.042542,251.609711 
	C313.479645,252.701111 313.076538,253.177551 312.250732,253.787903 
	C307.184509,253.163757 302.381897,252.338791 297.289032,251.257812 
z"/>
<path fill="#120F01" opacity="1.000000" stroke="none" 
	d="
M292.689850,228.815720 
	C293.346954,228.003220 293.700897,227.422043 294.170227,226.957428 
	C295.657440,225.485245 296.747803,221.939835 299.431244,224.581543 
	C301.371460,226.491577 298.884033,228.452408 297.566132,230.019485 
	C296.842377,230.880081 295.791656,231.514969 294.791779,232.081070 
	C293.656708,232.723709 292.152252,233.693405 291.160736,232.474136 
	C290.077698,231.142258 291.870972,230.200653 292.689850,228.815720 
z"/>
<path fill="#221D03" opacity="1.000000" stroke="none" 
	d="
M215.290024,221.325531 
	C215.866882,219.256302 216.461075,217.447235 217.256119,215.731247 
	C218.147583,213.807205 219.277451,213.161484 220.743088,215.792221 
	C221.213043,218.382401 219.410980,219.847961 218.433914,221.672577 
	C217.472931,223.467209 216.395554,222.713684 215.290024,221.325531 
z"/>
<path fill="#CFB314" opacity="1.000000" stroke="none" 
	d="
M312.364807,254.057556 
	C312.282349,253.471375 312.577576,252.954041 313.039673,252.188568 
	C316.799164,252.211227 320.278534,252.739502 323.778412,257.004303 
	C319.183441,255.806046 315.962952,254.966232 312.364807,254.057556 
z"/>
<path fill="#120F01" opacity="1.000000" stroke="none" 
	d="
M243.198593,216.583084 
	C244.721497,218.553558 243.664185,221.254013 244.574661,224.032822 
	C243.950394,225.188583 242.981506,226.778900 242.455902,226.643860 
	C241.061401,226.285568 240.967316,224.694214 240.888351,223.351166 
	C240.745026,220.913361 241.834839,218.902344 243.198593,216.583084 
z"/>
<path fill="#221D03" opacity="1.000000" stroke="none" 
	d="
M310.375793,282.441864 
	C309.899689,281.626373 309.817810,280.894897 309.851807,279.806213 
	C312.428772,280.163544 315.138336,280.303741 317.214630,282.594818 
	C314.919342,284.682892 312.837128,282.642181 310.375793,282.441864 
z"/>
<path fill="#221D03" opacity="1.000000" stroke="none" 
	d="
M319.167297,226.502960 
	C320.512177,226.012009 321.897583,225.851456 323.673126,225.848694 
	C323.245453,227.736282 322.427673,229.466080 321.591248,231.235245 
	C319.686127,230.356491 320.030975,228.273773 319.167297,226.502960 
z"/>
<path fill="#221D03" opacity="1.000000" stroke="none" 
	d="
M245.529633,246.948364 
	C246.338104,244.053680 247.811401,244.144485 249.676193,246.615265 
	C248.478699,247.356934 247.151367,247.408005 245.529633,246.948364 
z"/>
<path fill="#605205" opacity="1.000000" stroke="none" 
	d="
M340.233398,221.445526 
	C341.198425,220.780746 342.269867,220.420670 343.680054,220.030060 
	C343.691223,222.471786 342.969971,224.116699 340.233398,221.445526 
z"/>
<path fill="#120F01" opacity="1.000000" stroke="none" 
	d="
M249.250214,222.189880 
	C248.861069,220.775818 248.809723,219.100906 248.865967,216.930374 
	C250.608444,218.106247 250.415085,219.982208 249.250214,222.189880 
z"/>
<path fill="#000000" opacity="1.000000" stroke="none" 
	d="
M226.026917,187.445923 
	C226.163757,186.482468 226.614105,186.241119 227.651886,186.686798 
	C228.003632,187.123764 227.995697,187.299118 227.959579,187.736267 
	C227.325256,187.913101 226.719101,187.828125 226.026917,187.445923 
z"/>
<path fill="#A48E0F" opacity="1.000000" stroke="none" 
	d="
M227.270157,200.164474 
	C227.142029,199.766418 227.255569,199.161819 227.602631,198.365082 
	C227.728058,198.767929 227.619949,199.362930 227.270157,200.164474 
z"/>
<path fill="#CFB314" opacity="1.000000" stroke="none" 
	d="
M276.840637,243.553787 
	C276.565002,243.832809 276.110840,243.931274 275.312317,243.956314 
	C275.375610,243.190811 275.940155,243.020462 276.840637,243.553787 
z"/>
<path fill="#A48E0F" opacity="1.000000" stroke="none" 
	d="
M226.936249,201.660934 
	C226.748413,201.725327 226.593903,201.559616 226.481262,201.369125 
	C226.462662,201.337677 226.627335,201.197830 226.873077,201.023865 
	C227.038864,200.939636 226.983566,201.422546 226.936249,201.660934 
z"/>
<path fill="#221D03" opacity="1.000000" stroke="none" 
	d="
M324.219116,225.967377 
	C324.122437,225.791626 324.258362,225.514145 324.634033,225.139435 
	C324.733093,225.316696 324.592407,225.591156 324.219116,225.967377 
z"/>
<path fill="#050400" opacity="1.000000" stroke="none" 
	d="
M121.038361,230.373901 
	C118.722054,229.531097 117.407349,231.397949 115.886833,232.481293 
	C108.971756,237.408081 102.133736,242.446121 95.348190,247.550735 
	C88.372787,252.798203 81.042923,256.180542 72.057228,252.373581 
	C73.144478,250.660461 75.303268,250.067169 77.085541,249.090225 
	C85.765396,244.332550 93.629730,238.525803 100.471970,231.360565 
	C101.390137,230.399063 102.278366,229.401947 103.102585,228.359711 
	C103.935501,227.306442 104.824829,226.044907 103.886559,224.774460 
	C102.996376,223.569107 101.700439,224.534836 100.670822,224.856735 
	C91.152168,227.832550 81.606720,230.733826 72.162010,233.931305 
	C64.994514,236.357864 58.150509,235.927368 50.760136,232.396790 
	C56.280315,229.990265 61.369263,227.744080 66.480156,225.548965 
	C80.375877,219.580765 94.114845,213.230576 108.526573,208.526199 
	C112.095329,207.361267 115.599953,206.714905 119.650925,207.921814 
	C126.687492,211.516006 130.067184,218.302902 135.334442,223.767181 
	C133.470612,225.629837 131.382202,224.429321 129.369812,223.928055 
	C125.178375,222.884048 121.197777,221.106171 116.906555,220.317429 
	C124.928352,223.370392 133.164383,225.929169 140.696442,230.880310 
	C146.225327,235.858215 150.950821,241.056976 154.481018,247.553528 
	C148.479416,254.561722 143.169022,261.880402 135.816208,267.195984 
	C133.543152,268.839264 131.063736,270.220825 128.584244,271.545227 
	C127.264687,272.250061 125.342834,272.773743 124.347862,271.700928 
	C123.031593,270.281677 124.861313,269.020264 125.659821,267.933502 
	C131.092529,260.539795 135.519150,252.549011 139.641434,244.390656 
	C140.621155,242.451675 143.208267,239.845245 141.305695,238.263351 
	C139.468719,236.736008 137.200211,239.559448 135.508575,240.969925 
	C129.636627,245.865982 123.865646,250.886948 118.152390,255.968491 
	C112.027725,261.415955 104.998596,264.878174 96.348953,265.978180 
	C102.083008,257.269379 108.406281,248.772125 114.634796,240.205978 
	C116.879395,237.118927 118.896317,233.866333 121.038361,230.373901 
z"/>
<path fill="#120F01" opacity="1.000000" stroke="none" 
	d="
M190.901886,281.466064 
	C189.690689,280.460236 188.929733,279.609253 188.107422,278.477295 
	C203.514847,275.693207 218.968399,273.051788 235.143112,273.150940 
	C237.830902,274.631134 238.337631,276.562103 237.017426,279.288818 
	C234.701981,280.752869 232.514526,280.704987 230.372467,280.646210 
	C220.239532,280.368256 210.177155,281.149414 200.133133,282.407501 
	C197.183380,282.776978 194.172211,283.059082 190.901886,281.466064 
z"/>
<path fill="#120F01" opacity="1.000000" stroke="none" 
	d="
M170.461487,231.427765 
	C164.176422,229.571564 158.869812,226.747971 153.208664,221.820908 
	C161.484940,222.173279 168.101059,224.702606 174.928360,225.965469 
	C176.482086,226.252838 175.474701,227.550171 175.302505,228.405304 
	C174.808914,230.856552 173.650925,232.414536 170.461487,231.427765 
z"/>
<path fill="#BDA411" opacity="1.000000" stroke="none" 
	d="
M140.820160,230.814667 
	C131.544373,227.408646 122.149231,223.684860 112.754082,219.961075 
	C112.981339,219.405365 113.208588,218.849655 113.435837,218.293930 
	C120.787956,219.178436 127.517357,222.526062 135.130783,224.058945 
	C138.092102,225.544449 138.811554,228.487061 140.820160,230.814667 
z"/>
<path fill="#CFB314" opacity="1.000000" stroke="none" 
	d="
M207.847168,244.483093 
	C210.878815,245.416534 213.892715,246.037994 216.233780,248.591248 
	C212.396835,250.910843 207.887787,249.506943 203.444763,251.012238 
	C201.635498,249.919998 199.633957,249.680054 198.740555,247.540527 
	C201.649414,246.376495 204.603989,245.545517 207.847168,244.483093 
z"/>
<path fill="#CAAF12" opacity="1.000000" stroke="none" 
	d="
M237.200241,279.169006 
	C236.439774,277.217163 236.092636,275.584900 235.659271,273.600891 
	C237.094818,273.165771 238.616592,273.082306 240.595428,273.001129 
	C241.007980,274.801025 240.963440,276.598633 240.777344,278.751526 
	C239.668747,279.553680 238.681046,279.837006 237.200241,279.169006 
z"/>
<path fill="#221D03" opacity="1.000000" stroke="none" 
	d="
M190.953995,249.473236 
	C188.206161,250.826569 185.705307,252.915115 181.738434,251.324387 
	C184.376923,249.583084 186.640045,249.097443 189.366333,248.766953 
	C190.286407,248.477325 190.705643,248.600739 190.953995,249.473236 
z"/>
<path fill="#120F01" opacity="1.000000" stroke="none" 
	d="
M198.418427,247.178543 
	C200.139130,248.243942 201.583435,249.280411 203.025238,250.655441 
	C200.981094,250.214737 198.030289,252.955627 196.406158,249.114761 
	C195.612991,248.201782 196.007202,247.789993 196.777588,247.264053 
	C197.408630,247.128494 197.775330,247.139053 198.418427,247.178543 
z"/>
<path fill="#605205" opacity="1.000000" stroke="none" 
	d="
M196.660217,247.075134 
	C196.789642,247.546585 196.537354,247.975235 196.191254,248.634308 
	C194.613998,249.160965 193.130539,249.457214 191.270920,249.799103 
	C190.657303,249.582092 190.419846,249.319458 189.969177,248.893433 
	C191.930145,248.164154 194.104309,247.598251 196.660217,247.075134 
z"/>
<path fill="#E8C603" opacity="1.000000" stroke="none" 
	d="
M173.540283,260.401855 
	C173.308578,259.588196 173.594345,259.295776 174.224747,259.420044 
	C174.355911,259.445892 174.532288,259.630981 174.552811,259.763611 
	C174.651764,260.402924 174.339188,260.666595 173.540283,260.401855 
z"/>
<path fill="#605205" opacity="1.000000" stroke="none" 
	d="
M172.692108,255.024200 
	C172.835312,256.017334 172.322540,256.345520 171.631241,256.440247 
	C171.541748,256.452515 171.340103,256.217896 171.321106,256.079651 
	C171.204376,255.229797 171.807693,254.985992 172.692108,255.024200 
z"/>
<path fill="#FBD602" opacity="1.000000" stroke="none" 
	d="
M307.915833,301.079346 
	C309.010742,308.544434 309.072754,316.004211 308.718506,323.483276 
	C308.629364,325.364807 308.514374,327.110779 307.126343,328.900024 
	C305.277557,327.543549 303.721191,325.968384 302.002563,324.096008 
	C300.139465,321.093567 300.464325,318.059570 300.443298,315.087708 
	C300.408081,310.111267 300.532623,305.132721 300.375793,300.158875 
	C300.315002,298.231262 300.544067,295.168396 298.417450,295.116211 
	C295.842896,295.053040 296.719360,298.132080 296.622894,299.903870 
	C296.415649,303.709900 296.656464,307.533905 296.497772,311.346161 
	C296.401459,313.660461 296.386841,316.077515 293.476562,317.456940 
	C291.823944,316.889221 290.581482,316.246552 289.122742,315.330811 
	C287.048157,312.758698 287.567841,310.008820 287.487213,307.386658 
	C287.415710,305.060455 287.582275,302.724396 287.421051,300.404816 
	C287.301331,298.681580 287.739929,296.325592 285.178711,296.075958 
	C282.424866,295.807617 282.791290,298.259033 282.466339,299.946472 
	C281.809174,303.359009 281.962921,306.918030 280.324280,310.478210 
	C277.862091,309.820679 275.687225,308.891144 273.260376,307.769836 
	C271.658905,305.727600 271.581726,303.592712 271.601196,301.424133 
	C271.617493,299.605865 271.734650,297.792145 271.784912,295.976715 
	C271.852966,293.518494 272.227081,290.752228 269.408417,289.513275 
	C267.649078,288.739929 263.318329,292.522095 262.668976,295.124481 
	C262.232391,296.874023 262.533813,298.779114 261.304016,300.672180 
	C252.566177,295.546173 249.603867,288.710358 252.020782,279.332581 
	C253.526932,278.052185 254.966019,277.506012 257.080078,277.665283 
	C267.729980,278.982422 277.958801,278.124054 288.163483,278.343262 
	C291.978424,278.425201 295.759338,278.501343 299.526367,280.849854 
	C303.194458,285.464294 304.597900,290.449554 305.047424,295.786652 
	C305.218750,297.820587 304.650696,300.255829 307.915833,301.079346 
z"/>
<path fill="#030301" opacity="1.000000" stroke="none" 
	d="
M248.772049,354.073242 
	C249.078796,341.409943 247.467529,329.005585 249.835663,316.735840 
	C250.392792,313.849213 248.737457,311.275421 248.803574,308.029724 
	C255.409531,314.468140 264.173462,317.583191 272.666779,321.829346 
	C274.464722,323.605835 274.644379,325.598511 274.655060,327.611847 
	C274.715118,338.915924 274.761261,350.220337 274.626862,361.523956 
	C274.599243,363.848724 274.456299,366.199005 272.661896,368.574585 
	C262.251068,367.861725 254.847321,362.341339 248.772049,354.073242 
z"/>
<path fill="#040302" opacity="1.000000" stroke="none" 
	d="
M280.002960,325.703613 
	C284.596313,326.967529 288.485687,329.492218 292.276642,332.142914 
	C301.248627,338.416229 304.234955,345.989899 301.727081,355.719208 
	C299.647247,363.787842 293.424072,368.177368 282.501862,369.269867 
	C281.679108,369.352142 280.851227,369.382996 279.602386,369.337311 
	C277.483124,367.947968 277.319427,366.031403 277.639618,364.263580 
	C279.133575,356.015289 277.519012,347.709106 278.271393,339.436981 
	C278.676910,334.978241 278.880981,330.510956 280.002960,325.703613 
z"/>
<path fill="#FCD703" opacity="1.000000" stroke="none" 
	d="
M236.332794,278.804260 
	C237.748596,278.908081 238.710266,278.966675 240.153870,279.066040 
	C240.196548,282.033051 239.020615,284.607819 236.693817,286.946472 
	C234.630661,287.570709 233.210297,288.613586 231.946991,290.158966 
	C229.121475,292.044952 226.025192,292.826477 222.382828,293.026550 
	C219.143768,291.639679 216.301315,290.959076 213.135376,293.041016 
	C203.735260,292.800720 196.850357,288.178497 190.622681,281.618164 
	C205.562271,279.895905 220.678299,278.576843 236.332794,278.804260 
z"/>
<path fill="#F2CE03" opacity="1.000000" stroke="none" 
	d="
M280.018799,325.124451 
	C279.886078,339.635010 279.536469,353.973480 279.182953,368.774414 
	C277.130402,370.181824 275.082672,369.458649 272.713074,369.107361 
	C273.472443,353.655975 273.068878,338.312744 272.946838,322.506683 
	C275.231171,323.011078 277.516541,323.981720 280.018799,325.124451 
z"/>
<path fill="#171301" opacity="1.000000" stroke="none" 
	d="
M299.869385,280.807281 
	C285.924622,279.104004 271.813538,280.137207 257.386566,279.096985 
	C255.516586,276.870178 256.181824,274.934753 257.906982,272.785278 
	C261.876221,270.635223 265.769257,271.320068 269.513977,271.490295 
	C276.457214,271.805969 283.256653,273.638031 290.254517,273.684265 
	C292.084808,273.696320 293.685516,274.834991 295.571228,276.025146 
	C297.647003,277.287994 298.812042,278.817047 299.869385,280.807281 
z"/>
<path fill="#FDD808" opacity="1.000000" stroke="none" 
	d="
M295.788879,276.054382 
	C283.664337,275.127411 271.618958,272.561523 258.855896,273.242920 
	C257.915009,273.584778 257.476685,273.503296 256.995911,272.703949 
	C267.963806,263.124390 284.962463,264.591370 295.788879,276.054382 
z"/>
<path fill="#120F01" opacity="1.000000" stroke="none" 
	d="
M293.315155,317.702789 
	C294.936920,316.436279 294.974792,314.639526 294.988129,312.763611 
	C295.029205,306.978485 295.169800,301.193939 295.199341,295.408844 
	C295.207550,293.807434 295.291595,292.342438 297.215546,292.003479 
	C299.102386,291.671082 300.462952,292.473297 301.085144,294.292114 
	C301.898804,296.670624 302.018799,299.140259 301.987183,301.643707 
	C301.897797,308.722931 301.884216,315.803070 301.840546,323.340820 
	C299.081512,321.823761 296.322693,319.848724 293.315155,317.702789 
z"/>
<path fill="#0A0903" opacity="1.000000" stroke="none" 
	d="
M261.272766,301.175140 
	C261.047607,299.598602 261.063141,298.273163 261.056946,296.947876 
	C261.035339,292.321991 264.849091,287.209320 269.110077,287.388306 
	C272.793549,287.543060 273.583069,291.255005 273.346283,294.161102 
	C273.007294,298.321594 273.235229,302.449951 273.072998,307.083893 
	C268.882111,306.072174 265.072083,303.975006 261.272766,301.175140 
z"/>
<path fill="#0D0B02" opacity="1.000000" stroke="none" 
	d="
M280.341309,310.934082 
	C280.298096,306.438904 280.742767,302.128418 280.762238,297.816010 
	C280.777802,294.367310 282.498932,293.853699 285.470001,293.685638 
	C289.229950,293.472931 289.017120,295.747742 289.010712,298.141357 
	C288.996429,303.464844 288.957031,308.788269 288.917175,314.584747 
	C286.152863,313.744507 283.399231,312.431244 280.341309,310.934082 
z"/>
<path fill="#221D03" opacity="1.000000" stroke="none" 
	d="
M213.145767,293.322266 
	C215.903580,288.974670 218.064224,288.776642 221.864960,292.632355 
	C219.203232,293.963837 216.345078,293.809296 213.145767,293.322266 
z"/>
<path fill="#CFB314" opacity="1.000000" stroke="none" 
	d="
M256.611816,272.467804 
	C257.219879,272.570190 257.552795,272.796478 258.152740,273.165466 
	C257.945526,274.960358 257.471252,276.612549 256.987885,278.635620 
	C255.649597,279.000061 254.320358,278.993622 252.593384,278.974609 
	C252.817963,276.345856 254.428284,274.371918 256.611816,272.467804 
z"/>
<path fill="#221D03" opacity="1.000000" stroke="none" 
	d="
M232.331345,290.353516 
	C231.433426,287.461792 233.833099,287.540924 236.027008,287.064453 
	C235.604248,288.693146 234.118683,289.438202 232.331345,290.353516 
z"/>
<path fill="#120F01" opacity="1.000000" stroke="none" 
	d="
M150.382050,270.466034 
	C149.175552,272.795502 147.540756,272.470245 146.117401,271.608673 
	C145.399399,271.174072 145.846436,270.062286 146.426559,269.478790 
	C147.566483,268.332184 148.898941,266.789459 150.474716,267.186676 
	C151.905838,267.547394 150.709885,269.072632 150.382050,270.466034 
z"/>
<path fill="#171301" opacity="1.000000" stroke="none" 
	d="
M75.963074,239.256805 
	C78.379990,241.205338 75.690994,241.340286 74.986900,241.949036 
	C73.987442,242.813141 72.435928,244.009506 71.349190,242.092026 
	C70.805199,241.132202 71.733032,240.305634 72.775566,240.014893 
	C73.707420,239.755005 74.662575,239.578690 75.963074,239.256805 
z"/>
<path fill="#605205" opacity="1.000000" stroke="none" 
	d="
M43.726524,257.075378 
	C43.107567,257.986877 42.372974,258.210938 41.692898,257.587250 
	C41.498058,257.408569 41.500164,256.660126 41.697029,256.473297 
	C42.397835,255.808228 43.098827,256.111145 43.726524,257.075378 
z"/>
<path fill="#000000" opacity="1.000000" stroke="none" 
	d="
M117.438728,266.945312 
	C117.619812,267.780151 117.246490,268.931885 116.171722,268.143402 
	C115.532318,267.674347 116.436653,267.219208 117.438728,266.945312 
z"/>
<path fill="#000000" opacity="1.000000" stroke="none" 
	d="
M117.696625,266.766724 
	C117.888855,266.543854 118.191780,266.402130 118.494705,266.260376 
	C118.498802,266.469147 118.502899,266.677917 118.264526,266.952820 
	C118.022072,267.018921 117.807327,266.847870 117.696625,266.766724 
z"/>
<path fill="#050400" opacity="1.000000" stroke="none" 
	d="
M96.028389,266.032227 
	C95.935089,266.297760 95.764809,266.483765 95.594528,266.669769 
	C95.534821,266.434601 95.475105,266.199432 95.606285,265.879059 
	C95.797180,265.793854 95.951401,265.952698 96.028389,266.032227 
z"/>
<path fill="#120F01" opacity="1.000000" stroke="none" 
	d="
M350.227722,268.871155 
	C352.822327,271.578766 350.821167,273.950531 350.382355,276.693207 
	C346.791351,273.113068 346.285675,268.399689 343.922028,263.659729 
	C347.114044,264.763062 348.367065,266.914978 350.227722,268.871155 
z"/>
<path fill="#0D0B02" opacity="1.000000" stroke="none" 
	d="
M390.519348,276.918335 
	C389.505615,276.979736 388.820526,277.076935 388.217316,276.897919 
	C385.771149,276.172150 384.206207,274.543579 384.467377,271.935303 
	C384.591797,270.692657 386.094971,270.835236 386.838409,271.403290 
	C388.672058,272.804321 392.568665,272.786377 390.519348,276.918335 
z"/>
<path fill="#221D03" opacity="1.000000" stroke="none" 
	d="
M419.163605,239.060226 
	C422.019745,237.933853 424.481140,238.248825 426.941223,240.387878 
	C423.742188,242.617844 421.343323,241.274872 419.163605,239.060226 
z"/>
<path fill="#221D03" opacity="1.000000" stroke="none" 
	d="
M375.179504,260.444580 
	C377.950867,262.070831 380.148438,264.129852 382.511688,267.559753 
	C378.237427,266.720490 376.717194,264.154297 374.838226,261.590851 
	C374.780670,261.051056 374.835602,260.833710 375.179504,260.444580 
z"/>
<path fill="#171301" opacity="1.000000" stroke="none" 
	d="
M427.315735,279.750488 
	C426.847076,280.051849 426.677551,280.070526 426.256287,280.043457 
	C425.553497,279.364563 425.102417,278.731476 424.391174,277.955200 
	C423.960205,276.802155 423.736633,275.565094 425.390930,276.337067 
	C426.612976,276.907379 427.172974,278.206604 427.315735,279.750488 
z"/>
<path fill="#171301" opacity="1.000000" stroke="none" 
	d="
M429.399170,282.166016 
	C429.021637,282.130951 428.646698,281.877869 428.428558,281.818237 
	C428.083618,281.431122 427.857361,281.201843 427.287506,281.031921 
	C427.001831,280.826141 426.960205,280.659149 426.941284,280.235199 
	C428.683167,278.965027 429.510498,281.879547 431.605652,280.974304 
	C432.006226,281.207642 432.013428,281.409607 432.029663,281.915009 
	C431.284698,282.212646 430.530731,282.206848 429.399170,282.166016 
z"/>
<path fill="#000000" opacity="1.000000" stroke="none" 
	d="
M392.657776,195.704895 
	C392.716553,196.442612 392.434631,196.952942 392.077820,197.762817 
	C391.166382,198.201828 390.231384,198.002869 390.107117,197.198410 
	C389.856995,195.579010 391.539520,196.024780 392.657776,195.704895 
z"/>
<path fill="#000000" opacity="1.000000" stroke="none" 
	d="
M368.442535,285.807434 
	C367.596039,285.098328 367.054016,284.290833 366.777588,283.216675 
	C368.527771,283.303650 369.260712,284.121429 368.442535,285.807434 
z"/>
<path fill="#000000" opacity="1.000000" stroke="none" 
	d="
M398.334991,194.568695 
	C397.340698,195.052002 396.536835,195.075363 395.332275,195.050537 
	C395.848206,193.573166 396.862885,192.538132 398.334991,194.568695 
z"/>
<path fill="#000000" opacity="1.000000" stroke="none" 
	d="
M394.677185,194.824310 
	C394.551697,195.319946 394.071533,195.699356 393.262817,196.032928 
	C392.775848,194.886551 393.676727,194.935730 394.677185,194.824310 
z"/>
<path fill="#000000" opacity="1.000000" stroke="none" 
	d="
M352.736084,278.336121 
	C352.728973,278.608154 352.507874,278.670471 352.286774,278.732788 
	C352.365204,278.530640 352.443665,278.328491 352.736084,278.336121 
z"/>
<path fill="#221D03" opacity="1.000000" stroke="none" 
	d="
M374.929138,261.032654 
	C374.562012,260.897980 374.398224,260.527557 374.234436,260.157104 
	C374.487762,260.089233 374.741089,260.021362 375.231506,260.113129 
	C375.356537,260.447479 375.244537,260.622223 374.929138,261.032654 
z"/>
<path fill="#000000" opacity="1.000000" stroke="none" 
	d="
M367.041199,282.690308 
	C366.550964,283.310211 366.147644,283.207947 365.924744,282.303894 
	C366.336304,282.089569 366.677368,282.244690 367.041199,282.690308 
z"/>
<path fill="#120F01" opacity="1.000000" stroke="none" 
	d="
M278.852966,207.677521 
	C276.254364,207.755905 276.252136,207.720245 278.510590,203.614975 
	C279.430084,204.780258 278.872467,206.084732 278.852966,207.677521 
z"/>
<path fill="#171301" opacity="1.000000" stroke="none" 
	d="
M221.942230,204.188782 
	C222.164825,205.350510 221.763519,205.973892 220.762238,205.873520 
	C220.503967,205.847626 220.065399,205.534225 220.066437,205.354996 
	C220.072189,204.376297 220.732071,204.003021 221.942230,204.188782 
z"/>
<path fill="#C9AD12" opacity="1.000000" stroke="none" 
	d="
M121.036369,230.038040 
	C121.132416,229.999252 121.205269,229.939987 121.120888,229.930573 
	C120.963661,229.980408 121.013176,230.017548 121.036369,230.038040 
z"/>
<path fill="#DBBA00" opacity="1.000000" stroke="none" 
	d="
M252.431870,350.750519 
	C252.452499,348.757233 251.931320,347.039612 253.549820,345.581512 
	C255.823608,347.332977 255.459061,350.157043 256.287323,352.434113 
	C256.843872,353.964325 256.483459,355.603241 254.642807,355.845245 
	C252.803116,356.087097 252.856415,354.397339 252.728485,353.104401 
	C252.664215,352.454773 252.573151,351.807770 252.431870,350.750519 
z"/>
</svg>