<svg version="1.1" id="Layer_1" xmlns="http://www.w3.org/2000/svg" xmlns:xlink="http://www.w3.org/1999/xlink" x="0px" y="0px"
	 width="100%" viewBox="0 0 300 300" enable-background="new 0 0 300 300" xml:space="preserve">
<path fill="#010100" opacity="1.000000" stroke="none" 
	d="
M138.000000,301.000000 
	C93.166664,301.000000 48.833229,300.962555 4.500228,301.083527 
	C1.517043,301.091675 0.915329,300.482025 0.918348,297.499908 
	C1.017202,199.833344 1.017202,102.166649 0.918348,4.500082 
	C0.915329,1.517991 1.517991,0.915329 4.500082,0.918348 
	C102.166649,1.017204 199.833344,1.017203 297.499908,0.918348 
	C300.482025,0.915329 301.084686,1.517990 301.081665,4.500082 
	C300.982788,102.166649 300.982819,199.833344 301.081665,297.499908 
	C301.084686,300.482025 300.482666,301.089417 297.499817,301.082977 
	C244.500061,300.968567 191.500000,301.000000 138.000000,301.000000 
z"/>
<path fill="#F9D401" opacity="1.000000" stroke="none" 
	d="
M200.153351,166.621277 
	C199.901382,167.038193 200.020523,167.490067 199.995728,167.722412 
	C199.285583,169.422302 197.423325,170.533203 198.753601,172.829498 
	C198.969498,173.593857 199.218124,174.208450 199.013947,174.560364 
	C196.794510,178.385910 193.517395,181.754807 193.575745,186.783463 
	C192.888870,186.738297 192.638733,186.529602 192.449722,186.255722 
	C191.980362,185.575638 192.053497,184.785172 191.993027,184.021805 
	C191.991547,184.853561 191.992416,185.685562 191.589355,186.791931 
	C191.289505,196.071442 191.141785,205.046661 190.925903,214.020248 
	C190.892471,215.410172 191.422852,217.605225 189.416275,217.679779 
	C187.215454,217.761551 187.315262,215.470703 187.260559,213.894623 
	C186.885590,203.090652 188.068832,192.283508 187.222778,181.478088 
	C187.147400,180.515320 187.042511,179.554855 186.855301,177.580887 
	C184.777145,181.612778 186.189041,184.827118 186.026962,187.929962 
	C185.896805,190.421875 185.931519,192.926453 185.699890,195.407364 
	C185.576233,196.731842 185.073013,198.137573 183.331924,198.073349 
	C181.597122,198.009369 181.844055,196.469376 181.795700,195.427505 
	C181.604538,191.308823 181.467880,187.183563 181.479904,183.061249 
	C181.485733,181.061203 181.753540,179.075104 180.383774,176.983093 
	C176.163620,175.366241 172.922806,173.451920 173.146591,168.460800 
	C176.478683,166.680603 179.521652,167.941849 182.571274,168.087723 
	C176.663620,167.781509 170.817062,166.818710 164.513306,166.462799 
	C162.409180,166.338638 160.946854,165.574783 159.567078,164.653275 
	C156.251816,162.439117 153.766556,159.615082 153.942627,155.370728 
	C154.114136,151.236313 157.191971,149.545944 160.949783,148.125977 
	C161.607834,147.976456 161.874405,147.944016 162.538391,147.923569 
	C164.629745,148.512024 166.423782,148.472137 168.512207,148.868378 
	C173.532898,149.602707 175.423538,153.190613 177.191940,157.242783 
	C177.665558,155.172256 177.394562,153.289505 178.859833,151.549271 
	C181.659271,149.926651 184.057449,151.077393 186.827423,151.780640 
	C188.027466,152.087082 188.918076,152.163147 189.713287,152.583145 
	C189.222153,152.226425 188.610535,152.233505 187.725403,151.993011 
	C184.979080,151.135529 182.531815,150.524673 179.621948,150.467377 
	C175.457870,151.947983 172.242279,149.627518 168.436066,148.671814 
	C160.972092,146.244461 153.571945,146.449234 146.265442,146.303757 
	C143.552505,146.249725 140.691238,146.247864 137.548584,146.954529 
	C133.051468,147.145554 129.893051,145.054947 127.173279,142.379349 
	C123.370346,138.638199 123.859688,134.210770 128.551056,130.628632 
	C130.583954,130.867767 131.821136,130.316147 132.825302,128.535492 
	C139.942612,127.467651 144.236633,130.002777 147.721680,136.959991 
	C147.790512,136.308853 147.695969,135.647171 147.935944,134.664291 
	C148.252426,133.338089 149.334885,132.468658 148.157074,131.196655 
	C143.561005,131.250870 140.065353,128.715988 135.886963,127.319000 
	C134.397522,124.036415 134.656769,121.148849 136.664200,118.088898 
	C136.510925,112.951019 135.601791,107.110779 140.194260,104.644592 
	C143.693970,102.765221 143.680130,100.414886 144.523849,97.751900 
	C145.420197,94.922813 145.689514,92.522903 143.118393,90.088760 
	C141.206161,88.278412 141.250076,85.510979 142.916702,83.201927 
	C144.682755,80.755119 147.313751,80.407326 150.035202,80.753532 
	C152.372360,81.050842 153.234634,82.893517 153.738434,84.925240 
	C154.030106,86.101494 154.025345,87.375626 153.225967,88.267387 
	C149.992203,91.874870 150.658661,95.950775 151.713867,100.037514 
	C153.555801,107.171204 154.013367,114.830872 159.671265,120.795082 
	C160.234863,124.301025 160.746323,127.570122 164.092880,129.923737 
	C165.366425,131.028091 166.408310,131.685226 167.912262,130.336609 
	C169.398941,129.186813 170.037781,127.883598 170.494171,126.102188 
	C170.816818,124.960365 171.474518,124.272964 171.361145,123.014420 
	C171.193268,118.025932 174.435806,115.227692 177.142273,112.125641 
	C177.587830,111.614983 178.093384,110.946236 178.709396,111.529236 
	C180.726364,113.438187 182.637939,113.212349 184.282364,111.230537 
	C187.007751,107.945908 190.356979,104.640900 189.866699,100.062607 
	C189.381821,95.534782 191.827759,94.106369 195.261063,93.213295 
	C198.471375,92.378212 199.851974,94.642609 200.637115,97.108063 
	C201.756409,100.622879 200.082718,102.870811 196.731186,103.886772 
	C195.323196,104.313576 194.140457,104.977333 194.097641,106.444771 
	C193.865158,114.415787 190.909775,122.012100 191.002441,130.438843 
	C191.869278,131.859589 192.739563,132.800735 193.174240,134.318970 
	C193.419434,134.903442 193.668732,135.032272 194.248077,134.775269 
	C196.257584,132.853653 198.150742,131.248688 200.742340,130.063980 
	C201.735153,129.570099 202.521957,129.357712 203.620453,129.176270 
	C206.639206,131.573776 207.806564,128.571579 209.818024,127.406784 
	C210.395523,127.079422 210.709732,126.939972 211.279282,126.760406 
	C211.917252,126.787674 212.258408,126.692497 212.795212,126.301979 
	C215.387482,124.060394 218.943542,124.126114 221.095032,121.553986 
	C221.906876,120.583405 222.873108,120.047493 223.167130,118.494156 
	C224.078537,113.679100 226.562500,113.094940 230.804810,116.771523 
	C233.610062,122.062172 228.313705,122.370308 226.275879,125.015671 
	C223.011841,128.716629 220.039581,132.203552 216.981781,136.060425 
	C215.320282,137.966461 213.741730,139.495880 212.228363,141.518707 
	C210.270706,144.280640 208.007797,146.370773 206.062714,149.145218 
	C205.075302,150.456711 204.128311,151.366501 203.057327,152.591949 
	C201.469971,153.843918 201.253113,155.077148 202.254959,156.826202 
	C202.855820,158.612793 203.438950,160.079575 203.067368,162.011124 
	C202.677170,163.312576 202.029922,164.108047 201.304062,165.181717 
	C200.921249,165.698196 200.677231,165.964294 200.153351,166.621277 
z"/>
<path fill="#F7D202" opacity="1.000000" stroke="none" 
	d="
M139.239517,173.767502 
	C137.073776,180.794083 139.283340,187.683304 138.116791,194.427216 
	C137.827087,196.102005 138.797348,198.787048 136.228363,198.733170 
	C134.209610,198.690826 134.118622,196.049805 134.069397,194.310120 
	C133.937668,189.654907 134.115433,184.990662 133.970596,180.336212 
	C133.897476,177.986954 134.525070,174.573853 130.939987,174.553360 
	C127.038414,174.531036 127.609467,178.220169 127.601425,180.649017 
	C127.559074,193.437469 127.774292,206.226547 127.827179,219.015717 
	C127.838165,221.671799 127.571350,224.331467 127.371796,226.984924 
	C127.280289,228.201614 126.822563,229.503845 125.439705,229.439224 
	C124.072510,229.375351 123.675560,227.988617 123.619713,226.812393 
	C123.446678,223.167801 123.211487,219.512512 123.319023,215.870773 
	C123.659988,204.323730 123.615990,192.782318 123.129677,181.242981 
	C123.063049,179.662155 123.175606,177.896133 121.252747,176.775055 
	C119.176643,179.132935 120.029465,181.878326 120.022446,184.379898 
	C119.974785,201.359940 120.026085,218.340271 120.036507,235.320496 
	C120.037224,236.485199 120.053078,237.661224 119.904007,238.811539 
	C119.747513,240.019043 119.219528,241.189590 117.786873,241.109390 
	C116.711967,241.049210 116.036865,240.148331 115.924599,239.070496 
	C115.753426,237.427231 115.623482,235.770828 115.622818,234.119965 
	C115.615768,216.701553 115.720695,199.282303 115.544426,181.865814 
	C115.523026,179.750946 116.240021,175.937485 110.923676,178.540634 
	C105.589790,181.152405 105.134468,180.230881 105.124275,187.026199 
	C105.107300,198.344452 105.118439,209.662827 105.056870,220.980820 
	C105.048302,222.554123 105.437080,224.995926 103.303543,225.042175 
	C101.039085,225.091263 100.884850,222.691849 100.969521,220.858887 
	C101.406555,211.397141 100.909378,201.928940 101.210564,192.453995 
	C101.371246,187.399063 102.722939,181.847870 99.708557,176.913605 
	C98.730530,175.312668 99.272102,173.702393 100.505882,171.955536 
	C100.050560,171.483826 101.109131,170.711075 100.017975,170.667572 
	C98.249626,169.257904 98.806450,167.616699 99.258698,165.631912 
	C95.373947,163.928146 94.608620,160.766052 95.231110,157.419983 
	C95.746811,154.647919 95.207001,152.683685 92.800987,150.806213 
	C90.508606,147.088226 87.758392,144.148529 85.026413,140.793884 
	C84.350456,140.127792 83.915787,139.674179 83.195824,139.073334 
	C82.807060,138.736465 82.656898,138.595840 82.300583,138.226410 
	C81.603531,137.352737 81.231842,136.613892 80.370728,135.865601 
	C80.010483,135.486816 79.868942,135.330872 79.521957,134.928741 
	C79.187721,134.508301 79.058922,134.334015 78.764412,133.877655 
	C76.450943,130.734940 74.141869,128.023621 71.091537,125.512802 
	C68.882423,123.003494 64.617950,122.048973 66.754547,117.323425 
	C70.167213,113.135963 73.046608,113.387802 74.940514,117.727837 
	C77.358246,123.268265 79.230667,124.177673 85.214615,123.381027 
	C88.700851,122.916908 88.676834,126.894028 90.902359,128.604492 
	C92.526352,130.217255 93.475136,131.932144 94.900314,133.675293 
	C97.983856,135.595108 100.482285,138.703079 104.395203,135.637848 
	C104.570053,134.347321 104.869133,133.475601 105.832687,132.551361 
	C107.737198,129.682800 106.411812,127.341171 105.633942,124.786125 
	C105.255089,123.541718 102.220299,120.153664 107.444267,120.606636 
	C108.867752,120.730057 108.171539,118.682571 107.969444,117.725471 
	C107.250732,114.321785 106.156471,110.991013 105.557816,107.570786 
	C105.207344,105.568497 103.915649,104.903275 102.445190,104.111725 
	C99.424065,102.485466 98.822296,99.890831 99.997780,96.901794 
	C100.883217,94.650284 102.695854,93.465004 105.174706,94.066330 
	C108.392097,94.846809 109.381264,97.418236 108.847275,100.220818 
	C108.375916,102.694672 109.402092,104.202667 110.585953,106.087006 
	C114.293716,111.988586 117.188087,118.382843 121.335831,124.028099 
	C122.205620,125.211914 122.698395,126.714500 124.533096,127.440895 
	C125.600677,127.917603 125.882462,128.593765 126.002625,129.741669 
	C125.390388,132.505005 124.349586,134.693039 122.661186,136.927246 
	C121.826393,137.683746 120.572556,137.131073 120.451065,138.075867 
	C120.383606,138.600510 121.455070,138.767899 122.238083,139.377075 
	C124.147194,141.706467 125.929359,143.740295 126.386421,146.862854 
	C125.376503,149.008698 123.656654,149.384323 121.547729,149.781281 
	C120.507393,149.969574 119.815384,149.975739 118.844452,149.830109 
	C118.285759,149.672562 118.145378,149.627808 118.145378,149.627808 
	C117.503006,149.449493 117.528725,150.159088 117.795403,149.548080 
	C118.062073,148.937073 117.405663,149.616272 118.320335,149.700684 
	C119.633286,150.065613 120.696266,150.018845 122.114838,149.680023 
	C124.814079,149.616104 126.944603,148.283279 129.726700,148.486206 
	C135.574478,149.139404 140.209274,151.699234 144.195953,155.224167 
	C148.763763,159.262924 148.492661,164.548325 143.549042,168.188385 
	C140.471161,165.789291 137.304062,165.457291 133.954788,166.094269 
	C131.666946,166.529388 129.382584,166.559891 126.722427,166.301331 
	C123.884392,165.419174 122.960510,163.258011 121.634926,160.418686 
	C121.525963,162.739578 121.517776,164.449326 120.508286,166.245789 
	C117.849953,168.938980 114.561020,167.411911 111.473633,168.410675 
	C110.847969,168.486038 110.419693,168.369995 110.272964,168.519577 
	C109.945419,168.853485 109.977448,168.828018 110.378975,168.557510 
	C110.923927,168.190338 110.182693,168.716980 111.132507,168.472626 
	C114.079491,167.695282 116.811722,168.166229 119.831131,167.802475 
	C123.350777,167.380829 126.326752,167.507355 129.203461,169.313782 
	C132.094452,171.129181 135.788177,169.923981 139.101074,171.676147 
	C139.555344,172.439316 139.581863,172.935028 139.239517,173.767502 
z"/>
<path fill="#C5AA12" opacity="1.000000" stroke="none" 
	d="
M66.626862,117.174088 
	C65.827995,121.330048 70.023232,121.943573 71.975922,124.487656 
	C71.610336,125.864288 70.649803,126.201385 69.672119,126.394905 
	C57.939503,128.717300 47.650455,134.746918 36.383404,139.092743 
	C39.475914,139.909500 39.478420,139.920776 41.535084,139.463486 
	C46.253654,138.414322 50.809376,136.814194 55.426319,135.414871 
	C57.963055,134.646011 61.296474,132.264648 63.091682,135.411163 
	C64.792686,138.392578 61.191780,140.265442 59.409981,142.283707 
	C56.316650,145.787567 52.552429,148.484497 48.480236,150.824799 
	C52.404457,150.888809 55.276779,148.590363 58.232616,146.552750 
	C61.519836,144.286713 64.549667,141.659775 67.902733,139.486084 
	C69.142387,138.682465 70.614052,137.719055 71.982430,139.047302 
	C73.303139,140.329285 72.635658,141.935150 71.820282,143.178589 
	C68.722359,147.902847 65.644379,152.646896 61.722698,157.393433 
	C68.617249,155.423874 72.635963,150.120728 77.730667,146.391296 
	C79.910492,144.795639 82.159248,141.212463 84.806969,143.243851 
	C87.811050,145.548676 84.631210,148.660202 83.578728,151.274323 
	C82.279762,154.500702 80.241776,157.352280 77.914261,161.207199 
	C81.979950,158.689468 84.998970,156.484894 87.407890,153.474213 
	C88.646133,151.926636 89.793709,150.222504 92.311966,149.868774 
	C96.317581,151.297516 99.338287,152.603516 96.465668,157.644623 
	C95.161041,159.934067 97.273376,162.599091 99.064812,164.986603 
	C94.268265,166.141052 92.089745,170.231430 89.456398,173.805389 
	C88.527000,172.781799 88.944298,171.816177 89.267250,170.961578 
	C90.691650,167.192261 88.493431,167.881165 86.364487,168.591965 
	C83.113770,169.677246 80.277969,171.930359 76.671829,172.154984 
	C75.427429,170.383316 78.168610,169.701767 77.554619,168.119461 
	C77.162445,168.051178 76.696869,167.871811 76.248116,167.907013 
	C71.105515,168.310333 66.007301,169.378891 60.464333,168.928467 
	C60.017357,168.487900 59.913536,168.031677 59.627975,167.275177 
	C59.531120,166.795135 59.616009,166.615387 59.964756,166.296692 
	C60.228619,166.157776 60.655876,166.265366 60.871155,166.218628 
	C62.663246,163.920670 66.034004,166.010208 67.756897,163.313934 
	C68.696014,162.664764 69.391327,162.221786 70.259850,161.522186 
	C70.847740,161.253876 70.839691,160.935089 70.952942,160.796326 
	C71.370956,160.284134 70.229713,160.734055 70.890411,160.645050 
	C70.891937,160.644836 70.914017,160.786545 70.711517,161.235077 
	C69.921532,161.687057 69.452316,162.083191 68.686287,162.619965 
	C66.618134,164.916061 64.241890,165.241074 61.335144,164.959595 
	C57.007553,164.846436 52.967117,164.519623 49.162823,166.031876 
	C44.645462,167.827606 41.552765,164.543365 36.425831,163.039124 
	C42.269066,161.326096 47.472340,162.116302 52.057961,158.471954 
	C45.311504,157.234055 39.230289,156.156326 33.166679,154.987274 
	C30.659241,154.503860 28.815355,156.455444 26.503798,156.590149 
	C24.971273,156.679474 22.843609,157.991028 22.187401,155.786911 
	C21.541706,153.618149 24.075933,154.048584 25.224691,153.390915 
	C26.038715,152.924896 27.203674,153.014633 27.545135,151.766113 
	C26.697748,150.409363 25.519402,151.171951 24.167000,151.280746 
	C23.796253,151.032379 23.712450,150.785416 23.803738,150.188660 
	C25.524113,148.436981 27.440519,149.137207 29.581249,148.875290 
	C32.004246,148.044891 34.119560,148.666489 36.360863,148.450333 
	C35.184986,147.949768 33.886406,147.907074 33.098301,146.432892 
	C25.946022,141.499374 18.292934,142.465103 9.642705,144.490967 
	C14.371221,138.375168 19.533369,136.760300 25.699545,135.825562 
	C37.763062,133.996887 48.710892,128.638199 59.404907,122.903442 
	C60.945004,122.077545 61.204975,120.667511 61.397263,118.879440 
	C61.905960,118.611824 62.110420,118.564941 62.074768,118.314713 
	C61.722160,117.937683 61.609673,117.764008 61.290459,117.358795 
	C61.411091,116.960480 61.738461,116.793701 62.610325,116.711960 
	C64.189247,116.969742 65.223663,117.142479 66.626862,117.174088 
z"/>
<path fill="#C3A812" opacity="1.000000" stroke="none" 
	d="
M201.781570,152.281723 
	C202.841431,151.061569 203.689911,150.130737 204.835266,149.082001 
	C207.748184,148.387650 209.010315,150.446762 210.544830,151.843414 
	C213.979279,154.969330 216.903397,158.655365 221.749985,161.853668 
	C219.314560,158.229492 217.330551,155.514633 215.671616,152.604401 
	C214.845581,151.155304 214.101242,149.657959 213.872299,147.982193 
	C213.664825,146.463730 213.642059,144.896820 215.023560,143.883972 
	C216.516785,142.789200 217.920975,143.665054 219.148651,144.503845 
	C222.860275,147.039703 226.241333,150.000809 229.703674,152.859039 
	C232.334885,155.031174 234.879105,157.396194 239.381287,158.941971 
	C235.491104,153.312302 231.594482,149.200943 228.687439,144.388397 
	C227.914703,143.109131 226.903641,141.926453 226.608459,140.437347 
	C226.092178,137.832932 227.376450,136.876938 229.692688,137.827942 
	C232.168259,138.844345 234.065460,140.829590 236.137253,142.488220 
	C240.847427,146.259064 245.963181,149.265381 251.798386,151.037796 
	C247.262238,147.648651 242.466080,144.590103 238.676453,140.331421 
	C237.389069,138.884705 235.454849,137.279907 236.910461,135.168381 
	C238.342987,133.090363 240.526657,134.293533 242.392517,134.877625 
	C250.322708,137.360184 258.157227,140.345901 267.808197,139.119293 
	C261.309662,136.922501 255.647842,135.128082 250.196793,132.797791 
	C246.832794,131.359711 243.272736,130.329285 240.051483,128.626236 
	C235.421204,126.178276 230.738251,124.484314 225.190948,125.121094 
	C225.199188,123.119965 226.385193,122.413055 227.906708,121.869591 
	C229.745636,121.212761 231.023849,119.974350 230.959808,117.438187 
	C231.697891,117.043144 232.421280,117.014938 233.506226,116.951508 
	C234.305588,116.608177 234.712036,116.629852 235.136124,117.388763 
	C234.745514,119.865288 236.623947,120.208206 237.792282,120.815857 
	C251.335663,127.859642 265.382996,133.545074 280.490967,136.286163 
	C282.410309,136.634399 284.395477,136.812378 286.028931,138.594788 
	C286.043427,139.324158 285.846252,139.616531 285.280396,139.896988 
	C280.250183,141.354538 275.464264,142.683212 270.733856,144.186676 
	C266.791840,145.439545 262.775543,146.150391 257.843506,146.159042 
	C262.424652,151.322479 268.890991,149.555893 273.759491,152.589890 
	C267.485962,155.642212 260.695526,156.181870 254.054977,158.388062 
	C253.659256,159.274948 253.462357,159.888168 253.760696,160.809937 
	C253.921326,161.084946 253.995483,160.999695 253.953186,161.037399 
	C255.194229,161.685944 256.307861,162.460938 256.753235,164.289200 
	C256.812439,164.865982 256.805786,165.099472 256.704651,165.670990 
	C256.381042,166.420563 256.085358,166.775452 255.393585,167.201935 
	C254.844666,167.352814 254.614212,167.366028 254.063202,167.248413 
	C250.993866,166.684448 248.258896,166.098679 245.493576,165.848831 
	C238.964996,165.258972 238.959152,165.323639 240.884842,171.055496 
	C238.950470,170.120529 237.099442,169.225861 234.854553,168.370300 
	C234.637329,169.925583 233.177612,170.477234 232.422974,171.814087 
	C229.920990,171.501801 229.355240,168.101868 226.364746,168.519180 
	C224.957855,168.715469 222.579834,167.407715 223.792694,170.675095 
	C224.460251,172.473434 223.018127,173.252319 221.829132,173.471329 
	C220.147507,173.781067 220.619400,172.283173 220.344406,171.215546 
	C219.594269,168.303421 218.818909,168.072006 212.904480,168.074509 
	C212.817001,169.759506 215.448700,169.263321 215.232010,170.939529 
	C211.866730,171.836365 209.026306,171.083374 206.315231,168.782669 
	C204.738739,167.444824 202.735672,166.387405 200.182465,166.701004 
	C199.901382,167.038193 199.962433,166.999115 199.964249,167.035156 
	C199.855988,166.858017 199.745911,166.644836 199.825333,166.125702 
	C200.027527,164.679886 200.025665,163.533112 201.680817,162.997147 
	C203.974045,161.121872 202.350494,159.255066 201.993500,157.046844 
	C201.718460,155.336029 200.857651,154.027664 201.781570,152.281723 
z"/>
<path fill="#ECC903" opacity="1.000000" stroke="none" 
	d="
M139.379120,173.912750 
	C139.033340,173.662994 139.027466,173.231049 139.027359,172.475067 
	C141.446518,169.317383 145.106644,168.646896 148.518555,166.799744 
	C150.685410,166.520432 152.437546,166.041611 154.636337,165.935028 
	C160.816025,166.854156 165.638596,170.022842 170.649155,172.729187 
	C172.107147,173.516693 173.225388,174.749405 173.246307,176.948944 
	C171.179794,179.141479 170.639633,181.479004 170.588242,184.036301 
	C170.551224,185.878815 169.991760,187.607208 168.898438,189.559967 
	C167.650864,190.951874 166.402206,191.248291 164.627472,190.838287 
	C162.376236,189.363525 162.463333,187.297989 162.345886,185.333344 
	C162.227478,183.352432 162.393951,181.359192 162.227203,179.382599 
	C162.136597,178.308609 162.445572,176.657028 160.965286,176.542038 
	C159.233414,176.407532 159.143890,178.124542 158.906830,179.405502 
	C158.547745,181.345688 158.806961,183.391449 157.714264,185.534210 
	C153.725189,187.056519 153.055542,183.744003 151.421921,181.515106 
	C151.329208,181.331909 151.252640,181.063126 151.117767,181.129074 
	C150.982910,181.195023 150.894348,181.574005 150.842331,181.794525 
	C150.226807,183.371597 150.687515,184.680542 150.991547,186.332565 
	C150.876526,187.584824 150.474106,188.446228 150.341049,189.726166 
	C149.043839,199.685257 149.838120,209.346298 149.608032,218.985153 
	C149.576294,220.314850 149.643707,221.656250 149.486176,222.970795 
	C149.347214,224.130447 149.003677,225.391693 147.461227,225.318054 
	C146.244141,225.259964 145.878235,224.288849 145.793640,223.214828 
	C145.689789,221.895996 145.505981,220.575729 145.513809,219.257019 
	C145.578827,208.319626 145.773849,197.381958 145.715851,186.445511 
	C145.697449,182.974655 145.247314,179.466553 144.595871,176.051575 
	C144.106735,173.487442 142.723221,171.594604 139.379120,173.912750 
z"/>
<path fill="#EDC900" opacity="1.000000" stroke="none" 
	d="
M168.028534,191.803482 
	C168.328384,205.726349 168.118576,219.338776 168.436218,232.938919 
	C168.629822,241.228653 169.321884,249.500061 168.300751,257.774048 
	C168.147415,259.016632 168.563126,260.751587 166.774628,261.035309 
	C164.619797,261.377106 164.636581,259.278351 164.198135,258.033508 
	C163.511856,256.085022 164.604767,254.105942 164.588104,252.147903 
	C164.420456,232.463257 164.168701,212.779327 163.930603,192.637543 
	C164.979980,190.766769 166.327881,190.946609 168.028534,191.803482 
z"/>
<path fill="#FBF9EF" opacity="1.000000" stroke="none" 
	d="
M173.161240,177.099808 
	C168.379150,171.873795 161.733414,170.302475 155.558243,167.144180 
	C154.212921,166.359772 153.096176,165.835205 152.178452,164.478592 
	C150.962967,162.427231 150.665741,160.451019 150.071198,158.173737 
	C149.845947,153.788864 152.071625,151.046844 155.195068,148.376953 
	C157.286530,147.057999 159.088608,146.024292 161.677521,146.631409 
	C162.370911,147.183701 162.498306,147.662735 162.186035,148.497910 
	C158.578629,150.098663 155.192627,151.720673 155.196289,155.862823 
	C155.200821,160.988235 159.427200,162.954834 163.586945,165.088821 
	C166.376175,166.413284 169.776978,165.213959 171.681732,168.451065 
	C174.391052,171.270370 177.001572,173.748413 179.805267,176.489502 
	C179.667603,180.448380 180.769485,184.450989 177.406815,187.856583 
	C176.766235,189.433899 175.781342,190.012924 174.267639,190.437042 
	C173.205597,190.497757 172.499283,190.490082 171.762161,189.694916 
	C171.595551,188.363327 172.110413,187.561737 172.765991,186.453125 
	C174.532104,184.050522 175.181564,181.832336 173.554810,179.077164 
	C173.203964,178.352768 173.116959,177.904785 173.161240,177.099808 
z"/>
<path fill="#C3A812" opacity="1.000000" stroke="none" 
	d="
M164.032379,131.060638 
	C158.993866,128.190826 157.600037,124.923561 159.803192,121.200577 
	C163.005219,120.222374 164.525177,117.329887 167.343018,115.746040 
	C165.725983,119.757561 170.665527,120.904213 170.629547,124.426689 
	C171.574844,124.790199 171.507278,125.485153 171.956207,126.111366 
	C172.111008,128.343994 170.977646,129.649780 169.149689,130.864014 
	C167.355316,131.228424 165.853943,130.577606 164.032379,131.060638 
z"/>
<path fill="#C5AB16" opacity="1.000000" stroke="none" 
	d="
M125.772484,130.415955 
	C125.250511,129.575317 125.083900,128.886734 124.906815,127.844131 
	C127.391655,125.356308 130.312057,123.496368 131.728683,120.487854 
	C132.757370,118.303246 135.022034,119.378319 136.516724,117.895370 
	C136.653976,120.604485 136.450012,123.445389 136.108215,126.590607 
	C132.818481,128.464844 129.571609,129.780212 125.772484,130.415955 
z"/>
<path fill="#B79E10" opacity="1.000000" stroke="none" 
	d="
M105.685120,132.397797 
	C106.042542,133.366852 105.970688,134.398621 105.864166,135.816895 
	C101.711250,138.481033 98.293228,135.589020 94.254860,134.852386 
	C91.343712,134.058456 92.100380,131.400101 91.102287,129.261002 
	C95.832817,129.933533 100.312820,132.120804 105.685120,132.397797 
z"/>
<path fill="#F1EFE4" opacity="1.000000" stroke="none" 
	d="
M151.627060,178.973724 
	C152.692581,181.754822 154.204330,183.914474 156.392685,185.979721 
	C158.389740,185.954895 159.611191,186.703491 160.609619,188.474564 
	C160.793091,189.348083 160.723816,189.843414 160.272690,190.603363 
	C157.812485,190.722198 155.681396,189.842606 154.194016,188.479034 
	C151.562836,186.066879 151.410507,188.079758 150.555573,189.968552 
	C150.144440,189.090652 150.055161,188.114136 149.926025,186.769974 
	C149.825226,186.199142 149.764313,185.995956 149.659607,185.477600 
	C149.871506,184.346054 150.044327,183.522400 149.747528,182.359650 
	C149.637955,181.843185 149.616257,181.632248 149.715973,181.127380 
	C149.837402,180.833420 149.987320,180.436630 150.061676,180.238007 
	C150.402237,179.475174 150.725952,178.968307 151.627060,178.973724 
z"/>
<path fill="#C5AA12" opacity="1.000000" stroke="none" 
	d="
M192.434341,136.301941 
	C191.733429,134.603455 191.397263,133.119690 191.069305,131.252838 
	C194.084244,130.490143 197.090973,130.110550 200.523010,129.756714 
	C199.799576,132.275360 197.630661,133.806015 195.338013,135.649048 
	C194.483887,136.609329 193.680389,136.693893 192.434341,136.301941 
z"/>
<path fill="#241F03" opacity="1.000000" stroke="none" 
	d="
M32.716171,146.344559 
	C34.617378,146.624359 36.159256,147.677444 38.107719,146.980225 
	C38.977180,146.669098 40.527607,145.648010 40.743011,147.655167 
	C40.892708,149.050064 39.471619,149.549881 38.412697,149.767166 
	C35.821381,150.298828 33.197975,150.428223 30.349636,148.976456 
	C30.099495,147.282227 31.342939,146.968979 32.716171,146.344559 
z"/>
<path fill="#DBDAD4" opacity="1.000000" stroke="none" 
	d="
M160.326569,191.043030 
	C160.019409,190.465958 160.018173,190.045731 160.007767,189.310486 
	C161.170792,187.972885 162.314362,187.959930 163.681183,189.387421 
	C165.172455,189.732605 166.407990,189.783035 167.999802,189.721741 
	C168.748901,187.740433 170.063721,188.208862 171.652344,188.752823 
	C172.467392,189.297760 172.920181,189.542847 173.668716,190.046906 
	C172.354080,190.816116 170.743683,191.326355 168.724533,191.977844 
	C167.094803,192.102829 165.873840,192.086578 164.286713,192.125092 
	C162.824554,191.853226 161.728516,191.526566 160.326569,191.043030 
z"/>
<path fill="#AA930F" opacity="1.000000" stroke="none" 
	d="
M235.547577,117.977898 
	C234.843811,117.515465 234.497620,117.285324 234.009598,116.985733 
	C236.192917,115.013069 238.878357,114.197662 241.947495,114.312065 
	C238.838898,114.020226 240.664612,121.089432 235.547577,117.977898 
z"/>
<path fill="#C5AA12" opacity="1.000000" stroke="none" 
	d="
M209.717072,127.191505 
	C209.965622,129.016907 208.415344,129.881561 207.501144,131.156693 
	C206.805313,132.127228 206.493011,133.974518 204.881927,133.391663 
	C203.455963,132.875778 204.236084,131.128006 203.931946,129.580078 
	C205.477509,127.832283 207.587463,127.955322 209.717072,127.191505 
z"/>
<path fill="#B79C00" opacity="1.000000" stroke="none" 
	d="
M123.310623,249.795563 
	C123.382889,251.531250 124.777618,253.177612 122.802017,254.096512 
	C121.830742,254.548264 121.197792,253.437592 121.422318,252.721252 
	C121.953362,251.026901 120.557144,248.856247 122.675232,247.579987 
	C122.872826,248.189865 123.070419,248.799744 123.310623,249.795563 
z"/>
<path fill="#AA930F" opacity="1.000000" stroke="none" 
	d="
M285.228394,140.264923 
	C285.229034,139.692215 285.445953,139.434265 285.893738,139.066391 
	C288.679810,139.369980 291.235107,139.783478 294.107452,140.248276 
	C291.055634,143.945602 288.220306,140.843079 285.228394,140.264923 
z"/>
<path fill="#312A01" opacity="1.000000" stroke="none" 
	d="
M191.754028,187.100815 
	C191.094620,184.030090 190.255478,180.938705 191.848831,177.033859 
	C193.984192,180.451736 192.065659,183.398483 193.049088,186.448257 
	C192.818863,186.954376 192.433670,187.029617 191.754028,187.100815 
z"/>
<path fill="#393105" opacity="1.000000" stroke="none" 
	d="
M199.044830,172.814835 
	C197.822418,172.899460 196.203766,173.018967 196.032425,171.734375 
	C195.745636,169.584305 197.838501,169.032013 199.617584,168.033737 
	C202.196793,169.922791 199.397324,170.998199 199.044830,172.814835 
z"/>
<path fill="#312A01" opacity="1.000000" stroke="none" 
	d="
M61.025269,165.250504 
	C63.344925,163.755203 66.179031,163.743500 68.611946,161.795883 
	C69.107300,161.880844 69.267181,162.113968 69.248047,162.731445 
	C67.513725,166.094879 64.533936,165.757019 61.487808,166.185577 
	C61.075851,165.966919 61.065262,165.761948 61.025269,165.250504 
z"/>
<path fill="#B79C00" opacity="1.000000" stroke="none" 
	d="
M187.211014,227.859436 
	C187.308868,226.621201 187.712631,225.559601 188.560303,225.925812 
	C190.177719,226.624619 189.888275,228.359924 189.898392,229.793686 
	C189.904739,230.691010 189.406769,231.501221 188.419144,231.163010 
	C187.076294,230.703171 187.279724,229.362335 187.211014,227.859436 
z"/>
<path fill="#D3B400" opacity="1.000000" stroke="none" 
	d="
M144.061401,229.894012 
	C145.872391,230.984451 145.858414,232.267670 144.695557,233.562134 
	C144.496933,233.783234 143.580109,233.770432 143.434845,233.560837 
	C142.554779,232.291290 142.145233,230.968689 144.061401,229.894012 
z"/>
<path fill="#241F03" opacity="1.000000" stroke="none" 
	d="
M256.201477,165.144333 
	C255.379913,163.814316 254.702301,162.755569 253.967773,161.385971 
	C255.235291,161.101562 256.747833,159.649002 257.932800,161.869568 
	C258.508362,162.526947 258.478485,163.120209 258.881409,163.796021 
	C259.067749,163.991989 259.004242,163.995087 259.015961,163.965515 
	C259.216675,164.134094 259.405640,164.332214 259.290955,164.806885 
	C258.756317,165.329895 258.525330,165.576385 258.060944,165.925858 
	C257.130127,166.316071 256.679871,166.005814 256.201477,165.144333 
z"/>
<path fill="#D3B400" opacity="1.000000" stroke="none" 
	d="
M204.081238,105.265335 
	C205.228226,103.584137 206.425735,103.134369 206.740692,105.190315 
	C206.938904,106.484131 206.569870,108.622841 204.950607,108.653214 
	C203.044266,108.688980 204.014450,106.786636 204.081238,105.265335 
z"/>
<path fill="#ECC903" opacity="1.000000" stroke="none" 
	d="
M154.088638,212.708145 
	C151.772232,212.612350 151.772232,212.612350 152.254608,208.137741 
	C153.920197,209.128616 153.858551,210.814972 154.088638,212.708145 
z"/>
<path fill="#312A01" opacity="1.000000" stroke="none" 
	d="
M232.614380,172.044189 
	C231.526489,170.375320 232.150162,169.267258 234.118317,168.506195 
	C234.901489,169.990540 235.217667,171.520813 232.614380,172.044189 
z"/>
<path fill="#FFE342" opacity="1.000000" stroke="none" 
	d="
M174.256653,190.501160 
	C173.964478,190.305878 173.946854,190.095123 173.926331,189.990662 
	C174.818359,189.360580 175.730911,188.834946 176.886093,188.232635 
	C177.333511,190.084076 176.885803,191.349548 174.256653,190.501160 
z"/>
<path fill="#4D4307" opacity="1.000000" stroke="none" 
	d="
M254.654816,167.271317 
	C254.949966,166.676956 255.190964,166.378235 255.720551,166.012054 
	C256.786377,166.253738 257.265656,166.869385 257.883423,167.767700 
	C258.095398,167.974762 258.022522,167.977570 258.035797,167.943604 
	C258.397858,168.309204 258.536682,168.771774 258.266052,169.617157 
	C256.839417,170.121994 255.937988,169.616623 255.135345,168.316223 
	C254.867508,167.865967 254.734100,167.716461 254.654816,167.271317 
z"/>
<path fill="#312A01" opacity="1.000000" stroke="none" 
	d="
M60.045471,168.931427 
	C59.728973,169.610641 59.414074,170.342331 59.040039,171.042419 
	C59.016071,171.087280 58.336487,170.940018 58.297684,170.793320 
	C58.032871,169.792114 58.611092,169.294556 59.809853,168.992828 
	C60.121174,168.944107 60.033424,168.976593 60.045471,168.931427 
z"/>
<path fill="#B79E10" opacity="1.000000" stroke="none" 
	d="
M258.344574,167.676178 
	C257.481018,167.486237 256.866608,166.997726 256.130676,166.226898 
	C256.012756,165.765793 256.016357,165.587021 256.038757,165.140656 
	C256.475830,165.205444 256.894135,165.537842 257.570007,165.949554 
	C258.082977,166.478424 258.338379,166.928009 258.344574,167.676178 
z"/>
<path fill="#B79E10" opacity="1.000000" stroke="none" 
	d="
M258.416077,169.951065 
	C258.028168,169.485992 257.989655,169.035049 258.000122,168.246872 
	C259.046082,167.178986 259.482788,167.988876 259.739410,168.666367 
	C260.020325,169.407898 259.458740,169.802628 258.416077,169.951065 
z"/>
<path fill="#4D4307" opacity="1.000000" stroke="none" 
	d="
M81.475769,116.522667 
	C81.396378,117.040672 81.120499,117.362099 80.844620,117.683533 
	C80.650879,117.487679 80.457138,117.291832 80.263397,117.095993 
	C80.602028,116.839363 80.940659,116.582726 81.475769,116.522667 
z"/>
<path fill="#4D4307" opacity="1.000000" stroke="none" 
	d="
M172.231293,125.966324 
	C171.715302,125.977135 171.332657,125.610466 170.913010,124.977486 
	C170.938461,124.371414 171.000916,124.031662 171.191803,123.189880 
	C172.225464,123.454277 172.242096,124.540627 172.231293,125.966324 
z"/>
<path fill="#736306" opacity="1.000000" stroke="none" 
	d="
M62.975574,116.549797 
	C62.810730,116.857491 62.466637,116.917992 61.603134,117.052879 
	C60.838104,116.843117 60.344616,116.351860 60.383453,116.305374 
	C61.161171,115.374565 61.983864,115.938354 62.975574,116.549797 
z"/>
<path fill="#736306" opacity="1.000000" stroke="none" 
	d="
M88.669395,176.479187 
	C88.413429,176.269196 88.275719,175.488007 88.329521,175.474594 
	C89.084732,175.286224 88.822922,175.895218 88.669395,176.479187 
z"/>
<path fill="#4D4307" opacity="1.000000" stroke="none" 
	d="
M262.805969,170.802231 
	C262.314056,170.965439 261.831696,170.706772 261.349365,170.448105 
	C261.808289,169.780838 262.309509,170.028793 262.805969,170.802231 
z"/>
<path fill="#241F03" opacity="1.000000" stroke="none" 
	d="
M253.943558,160.678757 
	C253.117859,160.576218 252.889374,159.891617 253.538361,158.835052 
	C253.847595,159.194153 253.906693,159.733368 253.943558,160.678757 
z"/>
<path fill="#AA930F" opacity="1.000000" stroke="none" 
	d="
M259.330627,165.105591 
	C258.960175,164.890991 258.933014,164.698578 258.966797,164.221054 
	C259.718170,163.359909 260.194122,163.777084 260.650208,164.286392 
	C260.324768,164.566864 259.999329,164.847321 259.330627,165.105591 
z"/>
<path fill="#AA930F" opacity="1.000000" stroke="none" 
	d="
M259.277466,163.728699 
	C258.291351,163.966064 257.974701,163.545410 258.037842,162.480713 
	C258.518921,162.598724 259.003082,163.032059 259.277466,163.728699 
z"/>
<path fill="#4D4307" opacity="1.000000" stroke="none" 
	d="
M263.042938,170.970520 
	C263.226654,171.107712 263.326233,171.327545 263.425842,171.547379 
	C263.290802,171.530167 263.155731,171.512970 262.908539,171.359955 
	C262.796387,171.224121 262.958832,171.053162 263.042938,170.970520 
z"/>
<path fill="#C5AA12" opacity="1.000000" stroke="none" 
	d="
M212.738815,126.125648 
	C212.721207,126.366821 212.416031,126.587540 211.822739,126.764275 
	C211.840164,126.515259 212.145706,126.310226 212.738815,126.125648 
z"/>
<path fill="#B79E10" opacity="1.000000" stroke="none" 
	d="
M254.466003,167.001816 
	C254.783905,167.141571 254.858856,167.307480 254.967346,167.744431 
	C254.661346,167.886551 254.321777,167.757645 253.862427,167.373154 
	C253.742630,167.117554 254.223053,167.027954 254.466003,167.001816 
z"/>
<path fill="#312A01" opacity="1.000000" stroke="none" 
	d="
M60.012829,166.098053 
	C60.104691,166.299911 59.980766,166.442032 59.651535,166.779541 
	C59.424458,166.712082 59.375443,166.446625 59.400631,166.188385 
	C59.406712,166.126068 59.658333,166.087723 60.012829,166.098053 
z"/>
<path fill="#736306" opacity="1.000000" stroke="none" 
	d="
M61.738403,118.232887 
	C62.053135,118.253845 62.271622,118.396332 62.490105,118.538803 
	C62.368099,118.616158 62.246094,118.693512 61.912796,118.714790 
	C61.701496,118.658714 61.642159,118.354408 61.738403,118.232887 
z"/>
<path fill="#736306" opacity="1.000000" stroke="none" 
	d="
M59.732323,118.405899 
	C59.836704,118.508087 59.493610,118.574150 59.493610,118.574150 
	C59.493610,118.574150 59.627945,118.303719 59.732323,118.405899 
z"/>
<path fill="#B79E10" opacity="1.000000" stroke="none" 
	d="
M23.696661,149.935837 
	C23.971018,150.079163 23.963205,150.319504 23.917727,150.919617 
	C23.072449,151.107529 23.022541,150.652695 23.696661,149.935837 
z"/>
<path fill="#090701" opacity="1.000000" stroke="none" 
	d="
M224.697235,125.063232 
	C229.707352,122.503174 233.872742,123.590874 238.492691,125.972801 
	C247.356201,130.542572 256.843445,133.752304 266.316650,136.901215 
	C268.148315,137.510071 270.157166,137.859695 272.138489,139.963425 
	C259.460632,144.092697 248.645203,137.792801 236.014954,134.753754 
	C242.059891,143.082687 249.614365,147.207321 257.888641,152.208481 
	C250.554245,154.378326 245.871872,150.938995 241.309753,148.072205 
	C236.572174,145.095200 232.261887,141.438217 226.679611,137.267960 
	C229.799835,144.604538 234.410950,149.330139 238.249756,154.572937 
	C239.559158,156.361237 242.854919,158.622284 241.362503,160.130966 
	C239.105682,162.412384 236.097885,159.961899 233.888260,158.238617 
	C229.032181,154.451401 224.318756,150.481842 219.509995,146.633118 
	C218.252472,145.626648 217.123230,144.316879 214.861404,144.051544 
	C215.184250,152.534027 221.604050,157.632767 224.803314,164.516037 
	C216.282303,162.129639 211.600418,154.919418 205.438095,149.089249 
	C205.543259,145.472412 208.848206,144.060516 210.770447,141.261932 
	C217.113510,137.406464 224.032547,135.531418 228.939545,132.275879 
	C225.153290,132.900864 221.419937,138.031662 215.394180,136.269745 
	C218.236298,132.435043 221.333939,128.854065 224.697235,125.063232 
z"/>
<path fill="#FDFAEB" opacity="1.000000" stroke="none" 
	d="
M125.220886,130.574554 
	C128.404007,128.377319 131.574265,127.047173 135.576385,126.970352 
	C138.152756,127.528458 140.500565,127.845596 142.474670,128.877594 
	C144.813629,130.100327 146.743088,129.904633 148.972092,128.800201 
	C149.575668,130.466141 150.096176,131.846634 149.414764,133.720749 
	C149.092041,136.828308 148.967255,139.546326 148.842484,142.264328 
	C146.132187,135.031830 143.104279,128.560562 133.385437,129.304596 
	C132.229233,129.937561 131.583801,130.694763 130.191071,130.577545 
	C124.846252,133.926544 124.574089,138.810547 129.231018,142.387848 
	C131.316925,143.990158 133.634598,145.200729 136.497314,146.079681 
	C139.165283,145.823822 141.106552,146.844238 143.361572,148.077362 
	C146.788940,150.831467 150.197388,153.177582 150.621521,158.121948 
	C151.108475,160.024429 150.959274,161.626389 151.347290,163.565353 
	C151.297806,165.461853 150.594971,166.573807 148.986359,167.550034 
	C145.981461,169.819641 143.067871,171.314575 139.381638,172.029755 
	C134.255737,172.130325 129.135406,172.273560 125.596046,168.766663 
	C122.884125,166.079620 122.528320,171.998718 120.404266,169.190598 
	C119.961624,168.157562 119.724449,167.418472 120.128387,166.352631 
	C121.122627,162.870773 119.547478,159.349335 121.565056,155.563492 
	C123.175232,158.990143 123.110016,162.537735 125.866219,165.107849 
	C127.560249,165.933289 128.990143,166.406693 130.688980,167.104401 
	C134.390945,169.194748 137.980835,168.721512 142.269897,168.046417 
	C147.197098,164.691376 147.396790,159.463974 143.141388,156.077087 
	C139.522003,153.196396 135.431564,151.052673 130.492035,149.966400 
	C128.947937,148.991760 127.031281,149.256134 126.216751,147.293884 
	C124.558029,144.892914 122.666389,142.996445 121.881996,139.974365 
	C121.324783,139.131302 121.255867,138.563034 121.562386,137.695465 
	C122.247330,134.966415 123.282951,132.748154 125.220886,130.574554 
z"/>
<path fill="#D1B515" opacity="1.000000" stroke="none" 
	d="
M143.005463,149.272888 
	C140.805222,148.322647 139.021255,147.505142 137.042130,146.416763 
	C144.612900,142.948074 152.598129,144.550217 160.421127,145.529007 
	C163.168213,145.872696 166.403732,144.753708 168.965668,147.461884 
	C168.931992,148.026886 168.764908,148.224731 168.238190,148.568863 
	C166.068695,148.692551 164.300095,148.464325 162.314133,147.472473 
	C160.039764,147.131622 158.487518,148.238083 156.460968,148.977493 
	C151.947556,151.232574 147.703979,151.033844 143.005463,149.272888 
z"/>
<path fill="#FBF6DA" opacity="1.000000" stroke="none" 
	d="
M167.830383,148.323456 
	C168.213257,148.101593 168.389862,148.046600 168.832764,147.910309 
	C172.298798,148.432114 175.325455,150.285187 178.941620,149.482910 
	C179.368942,150.154251 179.459457,150.549545 179.232925,151.236816 
	C178.902313,154.908737 178.752518,158.322617 178.602707,161.736511 
	C175.845993,157.431152 174.766739,152.242264 169.202057,150.079041 
	C168.645187,149.737579 168.370636,149.530777 167.852280,149.209839 
	C167.653534,148.842819 167.638824,148.666550 167.830383,148.323456 
z"/>
<path fill="#B79E10" opacity="1.000000" stroke="none" 
	d="
M214.879166,136.126099 
	C221.041748,136.015945 225.530228,131.226334 232.608383,130.899460 
	C225.540817,135.788193 219.357361,139.779724 211.418182,141.056000 
	C212.222855,139.446381 213.421265,137.841278 214.879166,136.126099 
z"/>
<path fill="#241F03" opacity="1.000000" stroke="none" 
	d="
M172.353806,168.726089 
	C169.273163,167.779572 166.765808,166.766815 164.099625,165.443817 
	C171.561676,164.880997 178.960953,166.008011 187.665375,168.668411 
	C184.130508,170.202118 181.980057,169.274445 179.884827,169.132172 
	C177.565582,168.974686 175.246338,168.817291 172.353806,168.726089 
z"/>
<path fill="#312A01" opacity="1.000000" stroke="none" 
	d="
M179.465363,151.563568 
	C179.028458,151.065918 179.004807,150.637009 179.050446,150.003281 
	C182.040161,148.392883 184.630264,150.036133 187.670410,150.846695 
	C188.380493,151.402466 188.512482,151.866318 188.128876,152.653809 
	C185.192139,152.484390 182.535370,152.058334 179.465363,151.563568 
z"/>
<path fill="#171405" opacity="1.000000" stroke="none" 
	d="
M163.737991,131.427582 
	C164.774918,129.951416 164.689774,127.588188 166.768021,127.651268 
	C168.195587,127.694595 168.027969,129.371887 168.634933,130.709930 
	C167.368271,132.660675 166.199020,136.374420 163.737991,131.427582 
z"/>
<path fill="#241F03" opacity="1.000000" stroke="none" 
	d="
M175.810715,137.811493 
	C177.233017,136.608261 177.587341,134.233978 179.820267,135.162567 
	C180.594070,135.484375 180.298309,136.375870 180.045151,136.922211 
	C179.235504,138.669388 177.927490,140.025650 175.901566,139.904785 
	C174.458786,139.818695 175.286835,138.817520 175.810715,137.811493 
z"/>
<path fill="#312A01" opacity="1.000000" stroke="none" 
	d="
M201.659393,152.055725 
	C202.289017,153.429337 202.585083,154.866257 202.844345,156.668716 
	C202.521790,157.357681 202.164688,157.493042 201.506470,157.237823 
	C197.964447,155.363113 199.608704,153.740707 201.659393,152.055725 
z"/>
<path fill="#393105" opacity="1.000000" stroke="none" 
	d="
M129.845566,130.910355 
	C130.697769,130.101349 131.548569,129.703629 132.695587,129.358795 
	C133.091858,130.583359 132.779465,131.630737 132.107956,132.598099 
	C131.625671,133.292847 130.962402,134.084229 130.223022,133.545288 
	C129.787720,133.227997 129.950424,132.090332 129.845566,130.910355 
z"/>
<path fill="#171405" opacity="1.000000" stroke="none" 
	d="
M201.270020,157.421997 
	C201.616791,157.037949 201.956970,157.040771 202.552338,157.038910 
	C202.636581,158.999771 205.689194,160.972260 202.405487,162.956665 
	C200.488953,161.442978 202.515488,159.387375 201.270020,157.421997 
z"/>
<path fill="#F1EFE4" opacity="1.000000" stroke="none" 
	d="
M167.668747,148.011322 
	C168.036652,148.156601 168.040115,148.538254 168.045731,148.729004 
	C166.897400,149.937851 165.516083,149.338165 163.861679,149.315979 
	C163.232559,149.108856 162.977371,149.041779 162.335632,148.887451 
	C161.955963,148.462311 161.962845,148.124405 161.975967,147.533173 
	C163.809418,146.982147 165.652847,146.537552 167.668747,148.011322 
z"/>
<path fill="#D1B515" opacity="1.000000" stroke="none" 
	d="
M188.218124,152.946503 
	C187.914398,152.488663 187.979919,152.066895 188.029236,151.325348 
	C189.506546,152.233292 191.941147,151.388275 193.251770,153.325409 
	C191.508362,154.501556 190.126160,152.697113 188.218124,152.946503 
z"/>
<path fill="#4D4307" opacity="1.000000" stroke="none" 
	d="
M149.501648,133.999466 
	C149.149460,132.709061 149.082108,131.307816 149.093048,129.490082 
	C150.545105,130.529312 151.451721,132.044693 149.501648,133.999466 
z"/>
<path fill="#4D4307" opacity="1.000000" stroke="none" 
	d="
M187.137085,169.990875 
	C187.189346,168.093872 187.189346,168.093872 190.317993,169.599472 
	C189.662140,171.394775 188.459198,170.031204 187.137085,169.990875 
z"/>
<path fill="#393105" opacity="1.000000" stroke="none" 
	d="
M192.043213,136.411743 
	C192.820404,135.993042 193.571213,135.898865 194.702591,135.821213 
	C194.485580,136.758133 194.076981,138.051880 193.230423,138.480423 
	C192.557404,138.821106 192.098221,137.591782 192.043213,136.411743 
z"/>
<path fill="#4D4307" opacity="1.000000" stroke="none" 
	d="
M163.727234,149.410141 
	C164.749817,149.091675 166.011871,149.007401 167.662643,148.921417 
	C168.264206,149.142303 168.468140,149.372757 168.756241,149.822876 
	C167.221817,149.904541 165.594254,149.774429 163.727234,149.410141 
z"/>
<path fill="#010100" opacity="1.000000" stroke="none" 
	d="
M199.786789,165.935089 
	C200.186935,166.035339 200.359055,166.250916 200.248611,166.768845 
	C199.506088,166.860291 198.997833,166.668671 199.786789,165.935089 
z"/>
<path fill="#0A0801" opacity="1.000000" stroke="none" 
	d="
M92.775146,149.577988 
	C89.060013,153.355026 86.243195,157.560593 82.177567,160.539734 
	C80.180664,162.002975 78.244926,163.571259 74.792213,163.672714 
	C78.054237,156.589523 83.378944,150.970993 85.591949,142.700363 
	C75.615547,147.983856 70.104271,158.728302 58.039455,160.031967 
	C63.043480,153.033569 67.733780,146.473938 72.424088,139.914307 
	C66.883308,141.412384 63.184853,145.173843 58.880905,148.014877 
	C54.495594,150.909607 50.378948,154.873779 43.888165,151.488281 
	C51.312935,147.280975 58.238201,142.885651 63.757740,135.281189 
	C52.411816,135.737076 43.239830,144.577728 32.123142,139.771896 
	C45.126534,134.649872 56.843555,126.350533 71.630905,124.864136 
	C75.735756,126.734474 77.735962,130.288345 80.228470,133.610718 
	C77.680824,136.398010 75.611221,133.361542 73.721031,133.612473 
	C76.395760,134.812393 79.962227,135.016205 82.723152,137.807907 
	C82.946228,138.068741 82.998489,137.999390 82.969749,138.032379 
	C83.423134,138.427856 84.010834,138.495041 84.771057,138.855957 
	C87.989166,142.162369 91.506432,144.869156 92.775146,149.577988 
z"/>
<path fill="#241F03" opacity="1.000000" stroke="none" 
	d="
M130.385376,168.367859 
	C128.355896,168.047562 127.368866,167.008377 126.327972,165.578644 
	C130.247513,164.867096 134.312164,164.487457 138.358292,163.964539 
	C140.990250,163.624374 142.440109,164.611481 142.837616,167.639709 
	C142.955566,168.015182 143.017975,168.021072 143.023438,167.990173 
	C139.040115,169.793488 134.940857,169.019424 130.385376,168.367859 
z"/>
<path fill="#171405" opacity="1.000000" stroke="none" 
	d="
M94.224113,135.172653 
	C97.887634,132.429047 101.312477,136.040741 105.446777,136.115509 
	C105.607277,139.052246 104.158684,139.891571 101.498718,138.930573 
	C99.015869,138.033554 96.677376,136.883469 94.224113,135.172653 
z"/>
<path fill="#AA930F" opacity="1.000000" stroke="none" 
	d="
M82.921974,137.748383 
	C78.038277,136.240952 73.130333,134.413162 68.222382,132.585373 
	C72.371590,131.476791 75.676445,133.612000 79.729988,134.010941 
	C80.127800,133.959747 80.038933,133.992279 80.023453,133.947571 
	C80.191109,134.196503 80.419411,134.449371 80.882927,134.835480 
	C82.270126,135.371368 82.612198,136.378372 82.921974,137.748383 
z"/>
<path fill="#D1B515" opacity="1.000000" stroke="none" 
	d="
M125.827316,147.105652 
	C127.405998,147.763351 128.642075,148.561401 129.999191,149.658249 
	C127.674408,150.304932 125.228577,150.652817 122.370438,150.980438 
	C121.527176,150.594284 120.993210,150.328140 120.864685,149.471558 
	C122.013481,147.509750 124.111832,148.222488 125.827316,147.105652 
z"/>
<path fill="#241F03" opacity="1.000000" stroke="none" 
	d="
M119.816719,166.142090 
	C120.302979,166.830109 120.388863,167.585739 120.356781,168.617249 
	C117.131409,169.039780 114.024017,169.186447 110.477051,169.389008 
	C109.914825,169.222855 109.792175,169.000824 109.847183,168.442337 
	C113.155334,167.473816 116.285843,166.841782 119.816719,166.142090 
z"/>
<path fill="#393105" opacity="1.000000" stroke="none" 
	d="
M121.450073,137.209732 
	C121.772156,137.986740 121.819519,138.530640 121.816383,139.346268 
	C120.963371,139.493423 120.072906,139.548050 119.376884,139.206467 
	C117.979332,138.520599 116.567383,136.987991 117.485031,135.768082 
	C119.117439,133.597961 120.129837,135.887909 121.450073,137.209732 
z"/>
<path fill="#241F03" opacity="1.000000" stroke="none" 
	d="
M120.584686,149.096985 
	C121.290070,149.602402 121.634865,150.009171 121.968903,150.688049 
	C120.799606,150.936142 119.559464,151.483841 118.263687,150.246460 
	C117.791321,149.848831 117.597168,149.677231 117.715576,149.274597 
	C118.760124,149.028488 119.492119,149.013428 120.584686,149.096985 
z"/>
<path fill="#736306" opacity="1.000000" stroke="none" 
	d="
M117.669586,148.998688 
	C118.028137,149.043549 118.027664,149.532898 118.006577,149.776672 
	C116.819962,150.194595 115.654442,150.368744 114.295647,150.571777 
	C114.737831,148.258911 116.285065,149.205231 117.669586,148.998688 
z"/>
<path fill="#4D4307" opacity="1.000000" stroke="none" 
	d="
M109.690826,168.076096 
	C110.028458,168.328934 110.032089,168.552017 110.036591,169.109985 
	C109.191132,170.028595 107.879860,170.544907 107.490326,169.613327 
	C107.044052,168.546005 108.566109,168.425964 109.690826,168.076096 
z"/>
<path fill="#AA930F" opacity="1.000000" stroke="none" 
	d="
M84.792313,138.816742 
	C84.398598,138.907639 83.823303,138.750412 83.094505,138.329254 
	C83.497581,138.233109 84.054153,138.400864 84.792313,138.816742 
z"/>
<path fill="#010100" opacity="1.000000" stroke="none" 
	d="
M99.963608,170.958878 
	C99.844048,170.080948 100.046051,169.433716 100.873619,169.782379 
	C101.564842,170.073578 101.660576,170.647614 100.912582,171.448242 
	C100.520256,171.495346 100.359261,171.344086 99.963608,170.958878 
z"/>
<path fill="#0A0801" opacity="1.000000" stroke="none" 
	d="
M81.079468,134.663574 
	C80.746964,134.826492 80.420952,134.643509 80.051453,134.181671 
	C80.367294,134.041107 80.726624,134.179382 81.079468,134.663574 
z"/>
<path fill="#393105" opacity="1.000000" stroke="none" 
	d="
M44.911472,144.090088 
	C46.196415,144.148148 46.976967,144.377777 45.840626,145.362106 
	C45.052460,146.044815 44.127735,146.417068 43.336189,145.381195 
	C43.287628,145.317642 44.143585,144.562897 44.911472,144.090088 
z"/>
<path fill="#312A01" opacity="1.000000" stroke="none" 
	d="
M89.365891,161.115265 
	C91.822487,161.137726 90.928162,162.270981 90.291061,163.143570 
	C89.771675,163.854935 88.901123,164.138428 88.287193,163.294418 
	C87.646461,162.413544 88.555817,161.881027 89.365891,161.115265 
z"/>
<path fill="#4D4307" opacity="1.000000" stroke="none" 
	d="
M69.328476,162.974243 
	C69.050980,162.871109 69.032928,162.626404 68.981140,162.014725 
	C69.419380,161.338058 69.891350,161.028397 70.688202,160.864532 
	C70.538033,161.617767 70.062973,162.225220 69.328476,162.974243 
z"/>
<path fill="#4D4307" opacity="1.000000" stroke="none" 
	d="
M70.945496,160.950134 
	C71.029922,160.722015 71.136826,160.514008 71.243729,160.306015 
	C71.290848,160.485901 71.337975,160.665802 71.199097,160.928009 
	C71.013084,161.010330 70.967972,160.970245 70.945496,160.950134 
z"/>
<path fill="#241F03" opacity="1.000000" stroke="none" 
	d="
M232.085617,163.207932 
	C233.540512,163.833496 235.086197,164.070755 235.074966,165.742096 
	C235.069763,166.516724 234.264923,166.908920 233.639069,166.644165 
	C232.183472,166.028412 230.224686,165.537415 232.085617,163.207932 
z"/>
<path fill="#171405" opacity="1.000000" stroke="none" 
	d="
M208.781708,163.576874 
	C208.211166,162.330170 207.774673,161.438354 207.239853,160.345612 
	C209.970596,159.789917 211.007843,161.755554 211.088318,163.571030 
	C211.187851,165.816681 209.969070,165.612518 208.781708,163.576874 
z"/>
<path fill="#090701" opacity="1.000000" stroke="none" 
	d="
M164.001282,189.238586 
	C162.848831,189.459091 161.760712,189.236023 160.335602,189.004211 
	C159.001404,188.222977 158.004242,187.450485 156.846802,186.402786 
	C156.818039,183.659653 157.156036,181.181366 157.032639,178.726273 
	C156.847977,175.052094 159.405502,173.257401 162.046005,173.263260 
	C164.715469,173.269165 164.183685,176.318481 164.140640,178.430222 
	C164.070251,181.884216 164.086121,185.339996 164.001282,189.238586 
z"/>
<path fill="#171405" opacity="1.000000" stroke="none" 
	d="
M172.230835,188.828827 
	C171.040680,189.225815 170.066727,189.398972 168.724442,189.591064 
	C168.536301,186.302322 168.862381,182.994064 168.849808,179.687103 
	C168.840042,177.112915 170.233749,176.624832 172.762787,176.728912 
	C173.473160,176.916855 173.692520,177.115814 173.988770,177.547729 
	C175.356842,180.415878 175.159531,183.154831 174.253738,186.332520 
	C173.514328,187.367844 172.980698,187.986420 172.230835,188.828827 
z"/>
<path fill="#CEB523" opacity="1.000000" stroke="none" 
	d="
M149.038666,167.789062 
	C149.094193,166.725250 149.574677,165.723526 150.156708,164.400085 
	C150.866089,163.399399 151.616394,163.274185 152.809570,163.719360 
	C153.782745,164.749252 154.406433,165.571640 155.137451,166.694092 
	C153.428574,168.027649 151.459030,168.026672 149.038666,167.789062 
z"/>
<path fill="#DBDAD4" opacity="1.000000" stroke="none" 
	d="
M151.927094,178.754089 
	C151.436127,179.366852 150.998383,179.577179 150.348343,179.913452 
	C150.103027,178.698654 149.226471,176.864746 150.856079,176.273544 
	C152.074646,175.831451 151.866348,177.472107 151.927094,178.754089 
z"/>
<path fill="#AA930F" opacity="1.000000" stroke="none" 
	d="
M149.596924,181.117737 
	C149.903000,181.020447 149.968582,181.207458 150.111893,181.681427 
	C150.542938,182.712097 150.495300,183.501999 150.325546,184.663284 
	C150.146042,185.263351 150.098053,185.490936 149.968109,186.060425 
	C148.604370,184.852661 148.842804,183.141937 149.596924,181.117737 
z"/>
<path fill="#FFDB12" opacity="1.000000" stroke="none" 
	d="
M142.793915,149.425293 
	C146.809784,148.572250 151.036942,148.676773 155.696732,149.039124 
	C153.872986,151.431763 151.534378,153.752167 151.208481,157.650513 
	C150.945175,158.104904 150.782593,158.216248 150.391693,158.139862 
	C148.719681,154.383759 146.183014,151.765549 142.793915,149.425293 
z"/>
<path fill="#FFDB12" opacity="1.000000" stroke="none" 
	d="
M174.321350,186.547775 
	C174.041656,184.055801 174.035324,181.362320 174.065598,178.204620 
	C176.639252,180.473206 176.073456,183.383621 174.321350,186.547775 
z"/>
<path fill="#FFE342" opacity="1.000000" stroke="none" 
	d="
M150.125793,158.388565 
	C150.163406,157.952103 150.635941,157.963287 150.871841,157.978424 
	C151.728394,159.739700 152.349045,161.485840 153.064377,163.579407 
	C152.433182,163.954269 151.707306,163.981659 150.619843,164.043701 
	C150.201569,162.327240 150.144882,160.576141 150.125793,158.388565 
z"/>
<path fill="#DBDAD4" opacity="1.000000" stroke="none" 
	d="
M150.376495,184.812897 
	C150.145218,184.267044 150.096390,183.498322 150.118591,182.348999 
	C150.917160,182.757111 151.062531,183.627869 150.376495,184.812897 
z"/>
<path fill="#FFDB12" opacity="1.000000" stroke="none" 
	d="
M130.182022,168.536255 
	C133.984131,168.092758 138.048843,167.924744 142.571228,167.858017 
	C139.048569,171.408813 134.759720,170.304184 130.182022,168.536255 
z"/>
</svg>